<?xml version="1.0" encoding="iso-8859-1"?>
<!-- Uploaded to: SVG Repo, www.svgrepo.com, Generator: SVG Repo Mixer Tools -->
<!DOCTYPE svg PUBLIC "-//W3C//DTD SVG 1.1//EN" "http://www.w3.org/Graphics/SVG/1.1/DTD/svg11.dtd">
<svg fill="#000000" height="800px" width="800px" version="1.1" id="Capa_1" xmlns="http://www.w3.org/2000/svg" xmlns:xlink="http://www.w3.org/1999/xlink" 
	 viewBox="0 0 463.269 463.269" xml:space="preserve">
<g>
	<path d="M461.572,360.087c-22.648-18.816-60.982-35.363-113.947-49.186c-22.111-5.77-42.299-9.832-55.812-12.294
		c10.886-7.989,28.758-23.441,25.46-36.792c-0.767-3.108-2.715-5.744-5.385-7.373c19.826-19.595,28.359-35.959,25.352-48.652
		c-0.747-3.154-2.705-5.382-5.514-6.271c-2.062-0.652-4.293-0.486-6.52,0.153c3.272-7.224,5.597-14.141,6.937-20.708
		c4.731-23.183,1.667-41.254-7.451-43.947c-1.876-0.552-8.335-1.508-12.637,9.482c-0.998,2.55-1.995,5.279-3.05,8.169
		c-0.123,0.337-0.249,0.681-0.374,1.023c-0.244-11.657-0.954-26.538-2.794-40.464c-0.069-0.527-7.306-52.273-21.632-52.273
		c-0.117,0-0.237,0.003-0.355,0.011c-6.901,0.41-9.836,10.388-10.133,34.437c-0.129,10.415-0.733,20.518-1.676,30.198
		c-2.555-11.361-6.199-25.758-10.756-39.005c-0.174-0.506-17.837-50.588-31.934-46.85c-6.681,1.773-7.576,12.135-3.088,35.763
		c2.345,12.347,3.921,24.384,4.923,35.877c-2.808-8.276-6.103-17.187-9.75-25.58c-0.213-0.491-21.755-49.034-35.515-44.198
		c-6.521,2.293-6.6,12.692-0.27,35.896c4.218,15.463,7.151,30.524,9.16,44.661c-4.895-10.517-11.462-23.689-18.665-35.565
		c-0.278-0.459-28.173-45.661-41.15-39.006c-6.153,3.151-4.828,13.467,4.573,35.604c7.353,17.315,12.879,34.258,17.04,49.978
		c-7.925-9.23-19.413-21.953-31.227-32.779c-9.059-8.301-19.405-16.071-28.387-21.317c-14.908-8.709-19.719-6.801-22.039-4.606
		c-5.024,4.748-0.865,14.279,14.358,32.9c17.214,21.055,30.554,42.424,40.615,61.273c-9.119-8.356-18.577-16.176-28.291-23.352
		c-6.421-4.743-12.552-8.975-18.223-12.578c-0.453-0.288-45.496-28.428-54.181-16.712c-4.117,5.554,1.645,14.212,19.888,29.885
		c11.843,10.175,22.451,20.673,31.864,30.985c-5.936-2.877-11.589-5.423-16.918-7.617c-0.497-0.205-49.757-20.053-56.261-6.997
		c-3.084,6.187,4.101,13.705,24.801,25.952c12.571,7.439,24.854,15.775,36.768,24.938c-3.736-0.94-7.334-1.775-10.772-2.496
		c-0.524-0.11-52.569-10.649-56.589,3.371c-1.905,6.646,6.53,12.729,29.115,21c5.527,2.024,11.048,4.216,16.555,6.554
		c-11.323,2.569-49.152,12.106-47.641,24.486c0.837,6.861,10.979,9.173,34.997,7.979c5.327-0.262,10.721-0.398,16.158-0.417
		c-2.362,1.078-4.63,2.154-6.775,3.224c-0.391,0.194-39.022,19.573-34.234,31.226c1.116,2.717,3.601,4.081,7.973,4.081
		c4.77,0,11.787-1.626,21.718-4.895c3.332-1.097,6.717-2.12,10.13-3.102c3.373,2.584,11.011,5.991,27.844,5.991
		c3.007,0,6.309-0.11,9.931-0.351c4.18,4.654,17.199,15.036,47.761,10.671c4.245-0.604,7.558,0.435,10.428,3.276
		c13.906,13.767,10.825,62.999,8.464,80.807c-0.29,2.19,1.25,4.201,3.439,4.491c0.178,0.023,0.355,0.035,0.531,0.035
		c1.975,0,3.693-1.462,3.96-3.474c0.368-2.774,8.799-68.171-10.764-87.542c-4.667-4.622-10.449-6.479-17.19-5.514
		c-18.312,2.618-29.131-0.577-35.091-3.86c3.124-0.383,6.428-0.846,9.935-1.405c2.182-0.348,3.668-2.398,3.32-4.58
		c-0.348-2.181-2.391-3.663-4.58-3.32c-24.217,3.861-37.836,3.041-45.284,1.428c10.177-2.44,20.632-4.401,31.293-5.827
		c2.19-0.293,3.728-2.306,3.435-4.495c-0.293-2.189-2.309-3.725-4.495-3.435c-17.139,2.292-33.789,5.899-49.598,10.722
		c-0.536-3.435-2.463-6.412-4.673-8.702c2.861-1.692,5.964-3.398,9.315-5.065c5.954-2.97,14.809-6.844,22.636-9.937
		c3.3,0.161,6.606,0.356,9.918,0.604c0.102,0.007,0.203,0.011,0.303,0.011c2.073,0,3.827-1.6,3.984-3.701
		c0.165-2.203-1.487-4.123-3.69-4.288c-15.528-1.164-30.981-1.386-45.944-0.669c0.285-4.381-1.439-8.852-3.12-12.076
		c5.972-1.924,12.822-3.749,20.305-5.212c2.473-0.488,5.136-0.961,8.071-1.44c11.262,5.292,22.43,11.199,33.405,17.719
		c0.641,0.381,1.344,0.563,2.039,0.563c1.365,0,2.695-0.699,3.443-1.958c1.128-1.899,0.477-4.31-1.396-5.481
		c-22.281-13.942-54.515-27.134-64.065-30.632c-1.05-0.385-2.053-0.76-3.014-1.126c2.249-2.736,4.62-6.536,5.432-11.016
		c6.232,0.558,13.227,1.547,20.662,3.112c8.43,1.767,17.857,4.237,28.021,7.336c6.297,5.381,12.478,10.991,18.519,16.836
		c0.776,0.751,1.779,1.125,2.781,1.125c1.046,0,2.091-0.407,2.875-1.219c1.536-1.588,1.495-4.12-0.093-5.656
		c-21.305-20.613-44.267-38.465-68.307-53.125c4.305-2.338,8.3-5.976,9.491-11.17c3.469,1.178,7.075,2.52,10.775,4.043
		c10.174,4.19,21.599,9.718,33.959,16.422c11.789,14.423,21.103,27.884,28.017,38.818c0.761,1.204,2.059,1.863,3.385,1.863
		c0.73,0,1.47-0.2,2.134-0.62c1.867-1.181,2.424-3.651,1.243-5.519c-13.55-21.431-36.117-52.358-68.344-81.547
		c4.087-1.349,8.423-4.32,11.144-10.581c2.155,1.246,4.347,2.569,6.566,3.979c5.513,3.504,11.489,7.629,17.76,12.262
		c15.355,11.343,30.075,24.315,43.767,38.552c4.363,9.516,7.699,17.79,10.11,24.236c0.601,1.607,2.126,2.6,3.747,2.6
		c0.465,0,0.939-0.082,1.4-0.254c2.069-0.774,3.12-3.079,2.346-5.148c-8.282-22.149-27.184-65.298-61.243-107.538
		c3.852-1.068,7.91-3.439,10.919-7.996c3.877,2.976,7.938,6.351,12.044,10.114c20.797,19.058,40.656,44.245,40.854,44.497
		c0.004,0.005,0.01,0.009,0.014,0.015c4.676,21.608,6.755,39.824,7.671,51.859c0.16,2.1,1.913,3.696,3.984,3.696
		c0.102,0,0.205-0.004,0.308-0.012c2.203-0.167,3.853-2.089,3.685-4.292c-1.762-23.167-7.724-68.739-27.802-117.763
		c0.713,0.082,1.45,0.129,2.203,0.129c1.368,0,2.791-0.154,4.225-0.529c2.677-0.701,5.027-2.059,7.043-4.03
		c2.378,3.353,4.783,6.988,7.145,10.881c14.629,24.119,27.38,54.227,28.216,55.967c3.126,39.472-0.507,67.124-0.564,67.541
		c-0.299,2.188,1.231,4.205,3.42,4.505c0.184,0.025,0.367,0.038,0.548,0.038c1.967,0,3.682-1.452,3.958-3.456
		c0.087-0.632,8.228-62.353-9.928-133.905c0.532,0.031,1.069,0.053,1.613,0.053c4.212,0,8.712-1.007,12.052-3.986
		c1.859,3.571,3.706,7.412,5.479,11.491c9.395,21.617,16.446,46.865,18.557,54.768c0.184,40.498-5.77,68.547-5.861,68.964
		c-0.47,2.158,0.897,4.289,3.056,4.76c0.287,0.063,0.574,0.093,0.856,0.093c1.839,0,3.495-1.275,3.904-3.146
		c0.136-0.623,13.076-61.404,0.652-134.075c1.847,0.358,3.943,0.625,6.125,0.625c2.856,0,5.847-0.456,8.577-1.745
		c1.293,3.148,2.556,6.476,3.756,9.962c6.726,19.55,11.437,41.752,13.495,52.342c0.533,2.743,1.136,6.225,1.617,8.662
		c-7.676,47.089-21.669,79.353-21.86,79.786c-0.89,2.021,0.027,4.382,2.049,5.272c0.524,0.231,1.072,0.341,1.61,0.341
		c1.537,0,3.002-0.891,3.662-2.388c0.255-0.579,24.619-56.669,27.221-129.495c3.321,2.004,7.349,3.541,11.67,3.541
		c1.178,0,2.378-0.122,3.59-0.371c0.415,2.389,0.797,4.851,1.132,7.386c3.384,25.623,2.859,54.667,2.739,59.601
		c-6.067,13.766-15.085,30.784-30.576,52.471c-1.284,1.798-0.868,4.296,0.93,5.58c1.797,1.285,4.295,0.867,5.58-0.93
		c20.186-28.26,29.659-48.796,35.819-64.58c1.234,1.122,2.73,2.151,4.548,2.879c1.746,0.7,3.579,1.049,5.491,1.049
		c1.016,0,2.057-0.107,3.117-0.305c-0.312,2.286-0.719,4.72-1.251,7.324c-6.994,34.271-42.499,70.833-42.856,71.198
		c-1.545,1.578-1.52,4.11,0.058,5.656c0.779,0.763,1.79,1.144,2.8,1.144c1.037,0,2.073-0.401,2.856-1.2
		c0.382-0.389,9.471-9.701,19.591-23.594c2.393-3.284,4.618-6.522,6.695-9.716c0.503,1.053,1.138,2.094,1.964,3.075
		c1.967,2.337,4.592,3.92,7.826,4.758c-11.858,18.253-36.632,38.166-48.541,46.48c-1.812,1.265-2.255,3.758-0.991,5.569
		c0.777,1.114,2.021,1.711,3.284,1.711c0.79,0,1.588-0.233,2.285-0.72c0.565-0.395,12.059-8.817,25.102-20.192
		c1.29-1.125,2.567-0.693,3.121-0.407c0.98,0.504,1.732,1.478,2.011,2.605c2.145,8.684-15.449,24.315-28.949,32.917
		c-3.731-0.614-5.846-0.923-5.929-0.935c-1.037-0.149-2.092,0.113-2.937,0.733l-21.959,16.104c-0.977,0.716-1.576,1.836-1.631,3.045
		c-0.054,1.21,0.442,2.379,1.35,3.18l12.443,10.979c0.731,0.646,1.672,1.001,2.646,1.001c1.101,0,2.194,0.01,3.289,0.017
		c-12.273,15.629-14.417,37.652-4.544,55.552c9.603,17.412,17.28,34.83,17.356,35.004c0.659,1.499,2.125,2.392,3.664,2.392
		c0.538,0,1.084-0.109,1.607-0.339c2.022-0.889,2.941-3.249,2.053-5.271c-0.078-0.177-7.892-17.91-17.676-35.648
		c-9.374-16.997-5.879-38.413,8.203-51.508c102.738,2.819,178.352,35.714,179.137,36.061c0.523,0.231,1.073,0.342,1.615,0.342
		c0.014,0,0.027,0,0.041,0c2.201-0.01,3.982-1.797,3.982-4C463.269,362.006,462.598,360.811,461.572,360.087z M35.397,300.304
		c-9.254,2.944-14.074,3.716-16.493,3.842c1.996-2.422,6.413-6.314,12.784-10.646C33.468,294.945,35.758,297.418,35.397,300.304z
		 M27.08,266.308c-11.616,0.179-16.452-0.867-18.352-1.552c2.075-1.973,7.645-5.017,15.696-8.109
		C26.062,259.564,27.673,263.572,27.08,266.308z M22.98,223.183c-7.931-3.464-11.169-5.781-12.459-6.976
		c2.687-1.011,9.035-1.644,17.698-1.345C27.274,218.44,24.71,221.469,22.98,223.183z M32.231,178.627
		c-11.33-7.045-15.172-10.949-16.457-12.673c3.769-0.673,13.801,0.499,26.748,4.228C41.785,175.365,35.215,177.788,32.231,178.627z
		 M58.646,138.569c-2.084,0.671-4.071,0.617-5.165,0.506c-12.352-10.708-15.99-15.938-17.047-18.042c0.003,0,0.006,0,0.01,0
		c4.192,0,15.355,3.471,29.03,10.568C64.041,135.213,61.763,137.567,58.646,138.569z M91.233,96.917
		c-7.371-9.601-9.482-14.264-10.069-16.235c3.374,0.595,10.951,4.302,20.301,10.776C98.345,96.451,93.609,96.998,91.233,96.917z
		 M153.128,76.146c-3.196,0.853-6.601-0.389-8.291-1.17c-4.84-12.188-5.61-17.551-5.621-19.684
		c3.301,1.628,10.254,8.066,18.085,18.054C156.103,74.788,154.727,75.718,153.128,76.146z M192.758,73.114
		c-3.926-14.938-3.99-21.031-3.693-23.309c3.038,2.05,9.021,9.313,15.403,20.188C202.015,74.189,195.975,73.717,192.758,73.114z
		 M233.7,71.732c-2.748-15.229-2.334-21.317-1.858-23.566c3.065,2.438,9.017,11.079,14.909,23.73
		C242.737,73.965,236.771,72.65,233.7,71.732z M281.741,93.864c0.299-15.99,1.951-22.011,2.877-24.151
		c2.708,3.223,7.26,14.128,10.611,29.325C289.308,100.317,283.916,95.953,281.741,93.864z M319.969,161.89
		c-2.21-0.866-3.602-2.857-4.305-4.14c0.29-0.79,0.576-1.571,0.855-2.335c1.04-2.846,2.021-5.534,2.986-7.998
		c1.285-3.283,2.547-4.453,3.012-4.683c1.353,0.724,4.244,6.536,3.796,18.804C323.864,162.452,321.733,162.579,319.969,161.89z
		 M321.555,218.806c-1.934-2.269-1.848-5.682-1.711-7.107c5.357-4.208,8.765-4.861,9.408-4.602c0.029,0.035,0.123,0.201,0.203,0.538
		c0.968,4.085,0.061,8.74-2.137,13.668C324.704,221.047,322.755,220.213,321.555,218.806z M275.09,303.878
		c7.056,1.092,36.448,5.875,70.514,14.766c10.367,2.705,20.204,5.541,29.486,8.489c-20.348-5.22-39.19-8.583-54.83-10.74
		c-24.343-3.357-44.075-4.343-55.967-4.596L275.09,303.878z M262.7,319.8c16.093,0.32,49.183,2.046,88.344,10.051
		c-25.4-4.115-54.115-6.999-84.988-7.091L262.7,319.8z"/>
	<path d="M232.334,285.427c-7.034,0-14.785,8.991-16.993,11.747c-1.171,1.462-1.171,3.54,0,5.002
		c2.208,2.756,9.959,11.747,16.993,11.747c7.854,0,12.956-10.507,13.898-12.613c0.465-1.04,0.465-2.229,0-3.27
		C245.289,295.934,240.187,285.427,232.334,285.427z M232.334,305.923c-1.752,0-5.451-2.95-8.563-6.248
		c3.112-3.299,6.811-6.248,8.563-6.248c1.458,0,4.03,3.083,5.776,6.25C236.38,302.805,233.779,305.923,232.334,305.923z"/>
</g>
</svg>