<?xml version="1.0" encoding="iso-8859-1"?>
<!-- Uploaded to: SVG Repo, www.svgrepo.com, Generator: SVG Repo Mixer Tools -->
<svg fill="#000000" height="800px" width="800px" version="1.1" id="Layer_1" xmlns="http://www.w3.org/2000/svg" xmlns:xlink="http://www.w3.org/1999/xlink" 
	 viewBox="0 0 512.619 512.619" xml:space="preserve">
<g>
	<g>
		<path d="M435.303,47.125C422.162,28.757,284.412,0.448,278.012,0.021C277.799,0,277.586,0,277.351,0
			c-17.323,0-57.045,41.792-68.928,54.72c-28.757,31.296-27.648,38.571-26.987,42.901c0.896,5.803,4.011,11.499,7.317,17.515
			c2.56,4.651,7.872,14.315,6.059,16.299c-3.179,3.456-16.725,14.4-29.803,24.981c-49.707,40.192-66.624,55.253-68.8,65.344
			c-2.88,13.44,11.328,23.232,26.368,33.579c4.693,3.221,12.011,8.277,15.168,11.456c-2.688,4.608-9.067,13.483-14.379,20.885
			c-2.645,3.691-5.205,7.339-7.765,10.987h44.373c5.888,0,10.667,4.779,10.667,10.667S165.863,320,159.975,320h-58.901
			c-19.627,30.251-32.64,57.792-25.899,78.037c2.304,6.891,8.427,12.672,18.176,17.152c0.448,0.213,1.067,0.363,1.536,0.555
			c3.328,1.429,7.061,2.752,11.243,3.947c1.493,0.427,3.179,0.768,4.779,1.173c3.541,0.875,7.232,1.685,11.179,2.368
			c1.984,0.341,4.011,0.661,6.059,0.96c3.819,0.555,7.765,1.003,11.819,1.387c2.432,0.235,4.821,0.491,7.317,0.64
			c6.101,0.405,12.331,0.704,18.645,0.704c28.416,0,54.229-4.16,72.704-11.712c5.504-2.219,11.691,0.405,13.909,5.824
			c2.219,5.461-0.405,11.691-5.824,13.909c-20.992,8.555-49.685,13.291-80.789,13.291c-10.752,0-21.077-0.747-31.04-1.813
			l-12.715,17.237c-6.272,10.027-6.592,22.144-0.875,32.469c5.739,10.325,16.192,16.491,28.032,16.491l190.805-0.64
			c8.725,0,17.195-3.648,23.211-9.984s9.195-14.976,8.725-23.936L362.642,352v-6.123c1.493-1.536,2.731-3.605,4.139-5.333
			c-30.123-2.645-71.232-12.48-78.144-46.101c-1.045-4.992-3.328-25.835,10.283-83.563c1.344-5.739,7.019-9.387,12.843-7.915
			c5.739,1.344,9.28,7.083,7.915,12.843c-10.752,45.568-11.349,68.565-10.176,74.347c4.224,20.501,37.803,28.672,70.315,29.76
			c17.813-35.989,26.091-87.573,31.509-121.963c1.728-10.944,3.072-19.648,4.331-24.683c1.024-4.053,2.517-9.643,4.267-16.171
			C439.655,83.904,443.26,58.197,435.303,47.125z M319.783,172.757c-1.045,5.077-5.483,8.576-10.453,8.576
			c-0.704,0-1.408-0.064-2.112-0.213l-53.333-10.667c-4.992-1.003-8.576-5.376-8.576-10.453v-21.333
			c0-5.888,4.779-10.667,10.667-10.667c5.888,0,10.667,4.779,10.667,10.667v12.587l44.757,8.96
			C317.18,161.365,320.935,166.976,319.783,172.757z"/>
	</g>
</g>
</svg>