<?xml version="1.0" encoding="utf-8"?>
<svg xmlns="http://www.w3.org/2000/svg" viewBox="-16.738 -14.346 1127.666 527.797" xmlns:bx="https://boxy-svg.com" width="1127.666px" height="527.797px"><defs><bx:export><bx:file format="svg"/></bx:export></defs><g id="Group_1008" data-name="Group 1008" transform="matrix(0.544359, 0, 0, 0.544359, 5.191862, -620.861932)" style=""><path id="Path_742" data-name="Path 742" d="M209.1,1214.459a18.431,18.431,0,0,0-6.067-9.333c-8-6.938-20.916-15.514-36.981-16.978h0c-.577-.053-1.156-.087-1.735-.12-.935-.054-1.736-.083-2.5-.09a10.94,10.94,0,0,0-2.512-2.332,11.174,11.174,0,0,0-6.375-1.923c-7.232,0-15.638,2.388-23.219,19.961a46.128,46.128,0,0,0-8.616,3.461c-6.209,3.248-10.588,7.469-12.685,12.22a73.819,73.819,0,0,0-11.041,7.407c-5.418,4.383-12.351,11.388-14.612,19.869a.75.75,0,0,0,.576.929c.04.008.85.166,2.387.3-1.76,3.883-4.945,11.769-5.747,19.47H69.309a.75.75,0,0,0,0,1.5h10.11l-.03.057-.064.122-.17.323c-.035.065-.068.128-.1.2q-.12.228-.258.484c-.041.076-.086.159-.128.239-.067.124-.136.253-.209.387-.05.094-.1.188-.155.287l-.3.549-.2.361q-.144.259-.295.537l-.223.4c-.1.176-.2.36-.3.546l-.2.368-.511.911-.228.406c-.133.236-.271.479-.412.727l-.236.418c-.207.363-.42.738-.643,1.127l-.211.368q-.273.477-.562.977l-.242.418c-.265.459-.536.927-.821,1.416a15.376,15.376,0,0,0-.706,1.373c-.067.147-.121.293-.183.44-.09.217-.191.433-.269.649H69.309a.75.75,0,0,0,0,1.5h2.026c-1.571,7.077,4.588,11.176,4.653,11.218a.748.748,0,0,0,.407.121c11.82,0,14.754-7.258,14.873-7.567a.51.51,0,0,0,.019-.055L92.4,1284.4h73.285a.75.75,0,1,0,0-1.5H92.852l4.227-14.09h10.238c-.015.012-.03.027-.045.039-.081.066-.161.138-.24.209-.064.057-.128.111-.191.171-.083.08-.164.168-.245.255-.056.059-.113.115-.167.178-.09.1-.174.214-.258.326-.042.055-.087.106-.128.163a5.994,5.994,0,0,0-.346.548,7.4,7.4,0,0,0-.249,6.1.749.749,0,0,0,.711.515h.035a.75.75,0,0,0,.7-.58c.013-.055,1.329-5.491,6.5-6.521l7.014-1.4h8.025l-.049.061c-.043.051-.085.106-.128.16-.069.087-.138.175-.208.268l-.136.19c-.068.095-.134.192-.2.293-.046.07-.091.14-.136.213-.065.1-.128.212-.191.322-.044.077-.087.153-.13.233-.062.117-.121.239-.18.362-.038.079-.076.156-.112.237-.063.144-.121.294-.178.445-.025.067-.053.131-.077.2-.077.222-.146.451-.205.687-.01.04-.015.083-.025.124-.046.2-.087.4-.118.606-.013.088-.019.179-.029.268-.019.166-.036.333-.044.505,0,.1,0,.212,0,.318,0,.163,0,.327.012.495.007.115.02.232.032.349.018.167.041.335.07.506.021.122.045.244.072.368.038.174.085.35.136.528.036.126.072.25.115.378.062.186.137.376.215.567.05.123.1.245.153.37.1.213.212.43.329.648.057.107.106.212.169.321.19.328.4.661.638,1a.743.743,0,0,0,.242.209.676.676,0,0,0,.07.036.738.738,0,0,0,.281.067.038.038,0,0,1,.013.005h.013a.748.748,0,0,0,.742-.808c-.135-1.729.04-6.5,2.423-7.774l5.51-2.755h28.17a.75.75,0,1,0,0-1.5H144.955c-.5-1.024-2.158-2.835-7.615-2.835h-6.879l-2.495-1.5c1.8-1.339,3.668-3.883,4.261-8.73,14.333-6.094,25.5-16.294,29.931-27.35,2.314-5.779,2.516-11.212.62-15.829,1.427.361,3.746.93,6.547,1.557,4.264.955,8.245,1.734,11.832,2.316,14.639,2.375,23.4,8.626,24.941,12.3a.745.745,0,0,0,.644.458l.048,0a.752.752,0,0,0,.65-.376s.034-.059.092-.167h0A18.456,18.456,0,0,0,209.1,1214.459Zm-1.871,9.578c-.009-.039-.022-.077-.032-.116-.014-.056-.031-.112-.046-.169q-.108-.4-.247-.8c-.017-.048-.031-.1-.049-.146-.107-.292-.23-.58-.365-.864-.031-.063-.064-.125-.1-.188a8.109,8.109,0,0,0-.438-.767c-.019-.029-.034-.06-.054-.089a7.349,7.349,0,0,0-.588-.761c-.051-.058-.1-.114-.156-.171a6.775,6.775,0,0,0-.733-.69c-.922-.732-1.823-1.342-2.618-1.88-2.52-1.706-4.185-2.833-4.185-6.037a2.1,2.1,0,0,1,1.986-2.138,4.447,4.447,0,0,1,.69-.057c.05,0,.1,0,.149,0a5.828,5.828,0,0,1,.8.066c.057.008.114.018.17.028a7.141,7.141,0,0,1,.85.2c.049.015.1.033.149.05a7.826,7.826,0,0,1,.909.357c.018.008.035.019.053.027a8.254,8.254,0,0,1,.881.5c.04.026.08.048.119.074a8.179,8.179,0,0,1,.833.643c.049.042.1.084.144.127a8.044,8.044,0,0,1,.752.788c.042.05.082.1.123.152a8.272,8.272,0,0,1,.66.962c.025.043.047.089.071.133a8.294,8.294,0,0,1,.55,1.184l.151.413A16.408,16.408,0,0,1,207.225,1224.037Zm-5.179-17.778a20.632,20.632,0,0,1,2.466,2.521c-.108-.06-.219-.111-.329-.167-.06-.031-.12-.063-.181-.092-.168-.081-.337-.154-.507-.223-.056-.023-.111-.048-.167-.07-.174-.067-.348-.126-.523-.181-.053-.017-.107-.037-.161-.053-.176-.052-.352-.095-.528-.136-.052-.012-.1-.026-.156-.037-.176-.037-.35-.064-.523-.088-.052-.008-.1-.018-.157-.024-.174-.021-.346-.032-.518-.04-.049,0-.1-.009-.149-.01-.176-.005-.35,0-.522.009-.042,0-.085,0-.126,0a5.992,5.992,0,0,0-.623.075,3.558,3.558,0,0,0-3.224,3.615c0,.307.018.6.043.874.007.08.018.158.027.236.024.206.056.4.1.6.008.044.012.095.021.139-4.479-3.049-15.042-9.061-31.942-11.883.113-.143.224-.293.334-.448l.034-.044v0a10.846,10.846,0,0,0,.917-1.552c.149-.308.3-.664.456-1.088h0a13.724,13.724,0,0,0,.456-1.494,16.136,16.136,0,0,0,.427-2.805c.039-.582.042-1.189.027-1.809,0-.118,0-.235-.008-.354q-.036-.909-.144-1.86c-.005-.044-.005-.085-.01-.129C182.084,1191.405,194.366,1199.6,202.046,1206.259Zm-37.82-16.734c.363.021.727.042,1.088.068l.024.182c.081.648.139,1.282.166,1.9,0,.087,0,.171.007.257.02.64.019,1.265-.021,1.86a14.73,14.73,0,0,1-.387,2.548h0a12.091,12.091,0,0,1-.406,1.329c-.14.379-.271.692-.4.957h0a9.329,9.329,0,0,1-.793,1.342,8.523,8.523,0,0,1-.77.95h0c-.1.108-.2.208-.3.3a.742.742,0,0,0-.222.517c0,.024-.013.047-.012.071h0a.748.748,0,0,0,.067.237c.01.024.009.051.021.074a.763.763,0,0,0,.161.189c.019.017.028.041.049.056h0v0l.077.06.038.031.022.017h0c.209.16.4.341.6.511s.417.337.613.521c.164.156.313.33.472.493a16.593,16.593,0,0,1,2.528,3.354c.125.218.243.436.354.651.214.412.415.84.6,1.273.088.208.172.411.25.612.125.324.239.655.348.985-3.225-.74-5.641-1.358-6.465-1.573l-.021-.038c-1.012-1.886-2.917-6.361-1.677-8.333a2,2,0,0,1,.23-.283c.024-.025.041-.057.066-.081l0,0c.038-.037.075-.076.135-.143l.005-.008c.02-.021.035-.048.055-.07a4.186,4.186,0,0,0,.364-.464c.034-.05.067-.1.1-.152a5.8,5.8,0,0,0,.292-.527c.026-.054.054-.108.079-.164.092-.2.176-.415.252-.634.014-.04.03-.078.043-.118a12.8,12.8,0,0,0,.537-2.627c.005-.043.008-.086.012-.129q.04-.39.064-.78c0-.06.007-.119.01-.178.013-.249.023-.5.028-.741,0-.058,0-.115,0-.172q.006-.385,0-.759v-.115c-.014-.881-.065-1.7-.126-2.379l0-.051c-.019-.2-.037-.389-.056-.564,0-.04-.008-.075-.012-.114-.009-.076-.017-.16-.026-.231C162.885,1189.458,163.516,1189.484,164.226,1189.525ZM158.857,1199c-.263-.038-.51-.083-.753-.128-.093-.018-.194-.033-.285-.051-.326-.067-.635-.139-.925-.216-.056-.015-.1-.031-.158-.047-.23-.064-.453-.13-.66-.2-.094-.031-.178-.065-.268-.1-.155-.056-.309-.112-.451-.171-.092-.038-.178-.077-.264-.115-.126-.056-.249-.112-.364-.169-.082-.041-.16-.082-.237-.123-.105-.056-.208-.113-.3-.17-.07-.042-.14-.083-.205-.125-.091-.058-.176-.115-.258-.172-.057-.041-.116-.081-.169-.121-.079-.059-.151-.117-.221-.175-.044-.037-.092-.074-.133-.11-.072-.063-.135-.125-.2-.185-.029-.029-.062-.058-.089-.086-.083-.085-.158-.168-.223-.246-.021-.026-.037-.048-.056-.073-.042-.052-.083-.1-.117-.152-.022-.031-.039-.058-.058-.086s-.048-.072-.068-.1l-.044-.077c-.014-.026-.029-.051-.04-.073l-.029-.059-.011-.023c0-.06.011-.141.024-.242,0-.025.009-.059.013-.086.012-.088.027-.184.048-.292.01-.051.025-.109.037-.163.023-.1.048-.206.08-.318.019-.067.043-.139.065-.21.036-.113.078-.23.124-.35q.045-.118.1-.24c.053-.125.117-.253.184-.382.042-.082.083-.164.132-.247.081-.142.177-.285.276-.428.05-.073.1-.145.15-.218a6.063,6.063,0,0,1,.553-.64,6.393,6.393,0,0,1,.616-.542c.072-.056.154-.1.228-.159.152-.108.3-.217.468-.315.1-.057.2-.108.3-.162.154-.083.307-.167.47-.241.115-.053.236-.1.355-.146.162-.065.323-.131.494-.189.129-.043.265-.081.4-.121.172-.05.345-.1.525-.143.143-.034.291-.064.439-.093.184-.037.37-.072.562-.1.155-.023.314-.044.474-.063.2-.024.4-.044.6-.061q.249-.019.5-.033c.1,0,.194-.005.291-.009.007.062.014.126.022.191.01.089.02.174.03.268.007.069.014.144.021.215.047.484.088,1.021.116,1.6v0c.01.2.018.409.024.618l0,.061c.005.206.009.416.01.627v.063c0,.216,0,.434-.005.653v.019a16.9,16.9,0,0,1-.352,3.278l-.013.058c-.04.173-.086.34-.134.5-.012.039-.023.078-.035.117-.048.151-.1.3-.154.436-.017.043-.036.085-.054.128-.056.133-.114.262-.178.382-.021.039-.044.074-.066.112a3.575,3.575,0,0,1-.209.334c-.18-.019-.358-.039-.531-.061C159.137,1199.039,158.991,1199.023,158.857,1199Zm-5.926-13.82a9.7,9.7,0,0,1,5.535,1.665,10.016,10.016,0,0,1,1.4,1.147c-.326.027-.641.064-.952.107-.037.006-.077.008-.114.013-.382.056-.75.127-1.108.209-.11.025-.213.056-.321.084-.243.062-.484.128-.715.2-.125.041-.245.086-.366.13-.2.074-.4.152-.6.236-.121.052-.239.107-.355.163-.187.09-.368.186-.544.286-.108.061-.216.121-.32.185-.183.115-.357.237-.528.363-.084.061-.171.119-.252.182a8.23,8.23,0,0,0-.7.619c-.172.173-.326.348-.473.525-.043.052-.083.1-.124.155-.108.137-.208.274-.3.412-.03.043-.062.087-.09.13-.115.174-.218.348-.312.52-.023.041-.042.082-.064.123-.071.136-.137.271-.2.4-.023.051-.046.1-.067.152-.063.148-.121.293-.171.434-.006.017-.014.036-.02.053-.055.158-.1.309-.142.455-.012.043-.023.084-.034.126-.029.11-.055.216-.077.317-.007.033-.015.066-.022.1-.026.127-.047.245-.064.354l0,.009c-.025,0-.049.006-.075.007-.122.009-.241.024-.362.036-.143.015-.286.028-.426.049-.119.017-.234.039-.35.06-.136.025-.272.05-.4.08-.114.025-.225.056-.336.085-.129.034-.257.069-.382.108-.109.034-.215.072-.321.11s-.242.087-.36.135c-.1.042-.2.086-.3.131-.115.053-.228.106-.339.163-.1.049-.188.1-.28.152s-.212.124-.314.189-.175.113-.259.172-.195.141-.289.214-.159.125-.236.19-.176.157-.261.238-.144.136-.212.207-.158.173-.234.262c-.063.073-.126.146-.185.222-.072.092-.138.188-.2.285-.054.078-.109.155-.159.235-.062.1-.117.205-.173.308-.043.082-.09.163-.13.247-.052.109-.1.222-.141.335-.033.084-.07.166-.1.251-.042.121-.074.246-.108.37-.023.082-.049.162-.068.246-.032.141-.052.286-.073.431-.011.071-.027.14-.035.212a6.136,6.136,0,0,0-.037.669c0,.33.019.657.05.983.01.106.029.212.042.318.029.219.06.439.1.656.024.123.053.244.082.366.047.2.1.4.158.6.037.125.077.249.119.374.067.2.142.4.222.593.049.12.1.24.149.36.094.211.2.422.308.632.052.1.1.2.156.3.168.3.349.607.548.907l.01.017c.2.306.425.609.66.912.076.1.16.194.239.291.167.206.338.411.521.616.035.04.065.08.1.12-.155-.079-.328-.157-.486-.237q-.575-.288-1.157-.564c-.09-.042-.175-.084-.266-.126a83.193,83.193,0,0,0-13.941-4.811C139.464,1185.183,148.538,1185.183,152.931,1185.183Zm-43.6,35.35a.75.75,0,0,0,.349-.375c4.387-10.37,18.837-14.63,20.58-15.109l.04.009.152.037.161.039.189.047.234.059.228.059.371.1.174.046c.191.05.4.106.614.165l.046.012c.237.065.49.135.755.21l.1.028c.229.065.465.132.711.2l.248.073.635.189.309.095.629.2.36.114c.206.065.415.133.627.2l.4.132c.208.068.418.139.63.211l.427.146c.212.073.428.15.643.226.149.053.3.105.448.16.216.078.434.158.652.239.151.056.3.111.452.169.235.089.472.181.709.274l.409.159q.552.22,1.106.452c.29.122.585.25.88.379l.183.079c.214.1.431.2.647.3.145.066.289.129.434.2s.321.156.481.233c.2.1.4.19.6.29.139.069.277.143.416.214.218.112.438.223.654.339.1.051.19.106.285.158.257.14.514.28.766.426.052.03.1.062.155.093.291.17.58.342.861.519.065.04.125.083.189.124.266.17.531.34.785.516.053.036.1.075.153.111.262.184.521.368.768.558.022.017.042.035.065.052.272.211.537.424.789.642.034.03.064.061.1.091.235.207.465.417.679.63.038.039.071.079.108.118.2.207.4.415.58.628.033.039.058.079.09.117.177.216.348.433.5.654.024.033.04.068.062.1a7.538,7.538,0,0,1,.416.691c.062.119.1.242.158.363.067.151.144.3.2.453a5.314,5.314,0,0,1,.161.609c.018.077.047.152.061.229a4.937,4.937,0,0,1,.076.86c0,9.141-10.751,13.432-10.887,13.485-1.882.817-3.761,1.6-5.745,2.392a152.692,152.692,0,0,1-36.369,10c-1.711.224-3.339.4-4.84.521-2.134.174-4.182.268-6.113.278q-.966,0-1.892-.018c-.784-.019-1.548-.053-2.267-.1h0c-1.09-.071-1.916-.164-2.465-.238C89.062,1231.088,109.131,1220.639,109.336,1220.533Zm23.718,18.909c-.276.176-.559.348-.839.522-.379.235-.756.469-1.148.7-.291.175-.588.346-.883.519-.39.228-.779.456-1.182.684-.325.185-.656.367-.986.55-.38.211-.762.421-1.152.632q-.547.294-1.1.584c-.367.193-.736.386-1.11.578q-.6.308-1.206.611-.534.267-1.079.534-.648.317-1.3.63c-.315.151-.635.3-.955.451q-.691.325-1.384.645c-.3.14-.617.28-.927.419-1.72.777-3.444,1.522-5.156,2.235-.312.13-.623.26-.939.39-.474.195-.945.385-1.415.574-.377.151-.755.3-1.136.453q-.663.263-1.32.519-.8.313-1.623.623c-.431.164-.859.327-1.284.485q-1.031.385-2.079.768l-.822.3c-.848.305-1.7.609-2.565.91l-.072.026c-3.461,1.206-6.98,2.356-10.459,3.418-2.59.791-4.616,1.367-5.82,1.7.807-2.135,3.02-4.594,6.488-7.189q.827-.618,1.74-1.243c.148-.1.313-.2.465-.306.469-.315.94-.629,1.441-.946.233-.147.487-.295.727-.443.439-.27.873-.541,1.335-.812.326-.191.675-.383,1.012-.575.378-.215.748-.43,1.14-.645.494-.041,1.019-.1,1.539-.148.24-.024.467-.042.712-.069q1.215-.131,2.5-.3c1.321-.173,2.659-.378,4.008-.6.436-.072.879-.158,1.318-.237.924-.164,1.85-.334,2.785-.523.522-.105,1.047-.219,1.572-.331q1.311-.281,2.635-.589.822-.194,1.651-.4,1.338-.33,2.691-.694c.538-.144,1.074-.285,1.615-.436.994-.277,2-.573,3-.875.45-.134.9-.261,1.347-.4q2.19-.677,4.412-1.426c.131-.045.265-.095.4-.14,1.2-.41,2.408-.831,3.623-1.274C133.193,1239.35,133.126,1239.4,133.054,1239.442Zm-13.85,9.8c-.343.409-.713.807-1.106,1.2-.113.112-.238.218-.355.328-.291.275-.589.547-.9.811-.161.134-.333.265-.5.4-.3.232-.6.462-.915.686q-.283.2-.577.4c-.324.217-.661.429-1.006.637-.2.122-.4.244-.609.363-.383.219-.782.43-1.188.638-.188.1-.37.2-.563.292-.606.3-1.232.586-1.886.862-.377.159-.751.309-1.123.453-.612.236-1.24.458-1.878.671l-.2.069q-.96.315-1.955.593c-.361.1-.712.2-1.044.281l-.012,0c-.226.058-.439.109-.65.16l-.123.03-.067.016-.112.026c-.253.059-.5.115-.73.164l-.106.023c-.219.047-.429.09-.625.129l-.121.024c-.2.039-.385.074-.556.1l-.048.009c-.191.035-.365.065-.517.09.032-.14.061-.282.087-.425.053-.289.117-.608.187-.944.009-.043.017-.084.026-.128.071-.334.15-.691.238-1.068l.014-.062c.279-.1.55-.2.826-.294.468-.166.934-.331,1.413-.5s.951-.346,1.424-.519c.326-.119.649-.238.979-.361.6-.22,1.182-.442,1.767-.664l.625-.238q1.044-.4,2.066-.8l.377-.149q1.168-.462,2.307-.929l.193-.079q1.275-.522,2.515-1.051l.033-.014c1.8-.768,3.555-1.544,5.238-2.325-.211.3-.43.6-.666.887C119.314,1249.1,119.264,1249.171,119.2,1249.242Zm-11.4,10.834c.227-.017.454-.04.681-.059.685-.057,1.37-.12,2.053-.194.317-.034.633-.073.95-.11s.619-.068.928-.109a19.687,19.687,0,0,1-2.334,3.449H103.64a6.431,6.431,0,0,1-.819-2.759c.55-.007,1.1-.027,1.652-.045.2-.007.4-.009.6-.017Q106.442,1260.178,107.808,1260.076Zm15.111,4.453,4.627,2.776h-4.032c-.728-.8-3.021-2.835-7.434-2.835h-3.941l-.7-.7a24.124,24.124,0,0,0,2.811-4.435c1.015-.157,2.012-.327,2.968-.513C118.3,1262.361,120.346,1264.4,122.919,1264.529Zm-29.576-1.474a.751.751,0,0,0-.664.552c-.867,3.2-4.585,3.658-4.979,3.7H81.473a46.013,46.013,0,0,1,1-5.671l.353-.1.019-.006c.285-.077.669-.183,1.142-.316l.064-.018.74-.209.118-.034c.542-.154,1.158-.332,1.84-.533l.193-.057,1.052-.312.164-.05c.389-.117.788-.237,1.207-.365q2.478-.756,4.971-1.572c.52-.169,1.034-.345,1.553-.518.905-.3,1.812-.6,2.713-.9l-.01.049c-.033.154-.064.3-.094.447-.016.081-.035.167-.051.246-.042.214-.082.419-.117.613a7.611,7.611,0,0,1-.353,1.3c-.014.032-.029.064-.039.091A5.728,5.728,0,0,1,93.343,1263.055Zm-6.027-15.1c.064,0,.133,0,.2.008.527.027,1.065.051,1.621.064q.76.018,1.549.018c.121,0,.251-.007.372-.008q1.21-.006,2.475-.054c.15-.006.293-.007.444-.013l.08,0q-.789.473-1.534.942c-.089.056-.172.112-.26.168q-.783.5-1.515.995l-.45.307c-.551.381-1.088.761-1.593,1.139s-.992.764-1.453,1.142c-.144.118-.278.235-.417.352-.312.265-.613.528-.9.789-.14.128-.279.256-.412.383-.282.267-.546.532-.8.8-.1.1-.208.21-.3.315-.032.035-.07.07-.1.1C85.4,1252.262,86.544,1249.622,87.316,1247.952Zm-10.688,46.281c-.983-.709-5.5-4.359-3.619-10.363a13.243,13.243,0,0,1,1.2-2.682c4.225-7.255,6.277-11.167,6.9-12.383h6.626c.02,0,.04,0,.06,0,.2-.016,4.793-.428,6.185-4.331.082-.016.174-.037.271-.06l.1-.026.212-.058.141-.043q.1-.032.207-.069l.167-.059c.073-.026.147-.057.222-.087.058-.024.114-.045.174-.071.125-.054.252-.114.382-.179.063-.032.126-.068.189-.1s.153-.082.23-.128.142-.087.213-.132.143-.092.215-.142.146-.1.22-.156.143-.111.214-.168c.053-.043.107-.08.16-.126l-7.435,24.784C89.654,1288.148,86.954,1294.144,76.628,1294.233Zm20.9-26.928,2.1-7.005h1.683c.254,2.084.769,3.462,1.539,4.086a.754.754,0,0,0,.473.167h1.167l3.669,2.752Zm22.8,0a.821.821,0,0,0-.147.014l-7.086,1.417a9.643,9.643,0,0,0-6.676,5.144,4.825,4.825,0,0,1,.577-2.444,6.211,6.211,0,0,1,3.585-2.652.72.72,0,0,0,.228-.1.548.548,0,0,0,.06-.047.748.748,0,0,0,.168-.184.73.73,0,0,0,.075-.163.663.663,0,0,0,.023-.063l.007-.019a.755.755,0,0,0,.01-.227c0-.005,0-.008,0-.013s-.011-.026-.013-.041a.738.738,0,0,0-.058-.185.648.648,0,0,0-.04-.073.77.77,0,0,0-.1-.132.736.736,0,0,0-.056-.055.331.331,0,0,0-.025-.026l-3.87-2.9H110.1l1.2,1.2a.75.75,0,0,0,.53.22h4.252a9.358,9.358,0,0,1,5.1,1.335Zm9.922-1.335h7.086c3.351,0,4.945.722,5.7,1.335h-5.7a.75.75,0,0,0-.335.079l-5.688,2.844a4.373,4.373,0,0,0-.756.515c-1.614,1.361-2.206,3.784-2.41,5.731a6.443,6.443,0,0,1-.067-4.092,8.086,8.086,0,0,1,2.616-3.724v0a.729.729,0,0,0,.205-.249c.012-.021.022-.041.032-.063a.752.752,0,0,0,.062-.311c0-.005,0-.009,0-.013s-.009-.022-.011-.034a.718.718,0,0,0-.026-.165.7.7,0,0,0-.056-.109.57.57,0,0,0-.031-.06.734.734,0,0,0-.223-.224c-.007,0-.01-.012-.017-.016l-5.263-3.158c.074-.021.144-.057.217-.08a7.483,7.483,0,0,0,.713-.26c.064-.027.132-.043.195-.072l3.367,2.021A.749.749,0,0,0,130.254,1265.97Zm.988-12.939a.751.751,0,0,0-.457.615c-.449,4.347-2.037,7.348-4.593,8.679a6.479,6.479,0,0,1-3.025.728c-2.9,0-4.179-3.312-4.685-5.285a.749.749,0,0,0-.726-.564.78.78,0,0,0-.151.015c-1.255.257-2.585.491-3.953.7-1.121.168-2.249.306-3.38.427-.345.036-.692.065-1.037.1q-1.21.114-2.422.191l-.576.033c.106-.033.22-.076.327-.11.311-.1.616-.2.922-.31.357-.122.711-.248,1.077-.385.156-.058.318-.109.471-.168l.009,0c.375-.145.754-.3,1.134-.458,5.936-2.5,10.053-5.9,12.238-10.087l.091-.175q2.7-1.31,5.141-2.632c.147-.079.291-.161.438-.241.64-.349,1.271-.7,1.885-1.048.241-.138.477-.278.716-.416.518-.3,1.03-.6,1.528-.906.273-.165.541-.331.81-.5q.7-.434,1.369-.868c.266-.172.532-.344.793-.518.475-.315.934-.63,1.386-.946.209-.146.423-.29.628-.438.635-.454,1.251-.907,1.837-1.361.657-.262,1.29-.524,1.927-.786.306-.125.622-.251.924-.377.949-.4,1.883-.792,2.81-1.195a23.911,23.911,0,0,0,5.874-3.538c3.888-3.184,5.943-7.1,5.943-11.334a6.376,6.376,0,0,0-.087-1.018c-.024-.151-.068-.3-.1-.45-.042-.174-.081-.349-.136-.52-.063-.2-.143-.4-.225-.6-.044-.106-.089-.211-.138-.315-.112-.239-.236-.477-.376-.713-.014-.024-.03-.048-.045-.072-.129-.214-.248-.43-.4-.642.157.115.307.233.456.352.086.069.178.135.261.205.249.209.486.422.711.642.055.053.1.11.159.164.167.17.333.34.488.514.079.089.151.181.227.271.121.144.243.287.355.434.078.1.149.2.223.3.1.14.2.279.3.421.072.107.139.215.206.323.088.14.175.28.256.421q.094.164.183.33c.078.142.152.284.224.427.055.111.109.222.16.333.068.144.132.289.194.433.047.111.094.221.138.332.059.148.114.3.168.444.039.107.079.213.115.32.053.155.1.309.148.463.03.1.063.2.091.3.048.168.09.334.132.5.022.085.046.171.066.255.053.226.1.449.144.671,0,.023.011.047.015.071.048.246.089.489.125.73.011.074.019.146.03.22.023.165.045.329.063.491.01.088.018.173.027.26.011.112.021.223.031.333C156.33,1237.232,145.333,1247.14,131.242,1253.031Zm30.495-29.548c-.052-.218-.109-.44-.171-.664-.012-.045-.027-.091-.039-.136q-.09-.318-.194-.64c-.026-.08-.053-.16-.08-.241-.069-.2-.144-.41-.222-.616-.025-.064-.047-.128-.072-.192-.1-.264-.217-.529-.337-.794-.029-.063-.061-.126-.09-.189-.1-.208-.2-.417-.311-.625-.043-.083-.088-.165-.133-.248-.12-.219-.246-.437-.38-.654-.031-.052-.06-.1-.092-.155q-.249-.394-.529-.782c-.049-.067-.1-.133-.151-.2-.148-.2-.3-.394-.464-.588-.063-.076-.126-.153-.192-.229-.195-.224-.4-.445-.61-.662l-.082-.087c-.242-.242-.5-.477-.764-.708-.075-.065-.153-.127-.229-.191-.208-.173-.423-.341-.645-.507-.088-.064-.174-.129-.263-.193-.3-.216-.618-.427-.951-.628-9.559-5.762-9.559-10.543-9.559-12.113a4.564,4.564,0,0,1,.03-.514c.007-.057.02-.111.029-.166.017-.111.033-.221.059-.329.015-.064.037-.126.056-.19.027-.095.053-.191.087-.283.024-.067.054-.13.082-.195.036-.086.072-.172.113-.255.034-.066.072-.129.109-.193.044-.079.088-.157.138-.233s.087-.124.132-.185.105-.145.163-.215.1-.116.154-.174.122-.133.186-.2.117-.108.176-.162.137-.122.209-.179.13-.1.2-.149.152-.109.231-.161.142-.09.215-.134.165-.1.251-.142.154-.08.232-.118.179-.084.27-.124.166-.068.25-.1.191-.07.288-.1.175-.058.265-.084.2-.056.306-.082.184-.045.278-.065.215-.041.324-.06.191-.032.289-.045.227-.026.342-.037c.1-.009.2-.019.3-.025.036,0,.072,0,.107,0,.014.025.032.053.047.079s.03.052.048.08c.054.088.115.181.187.28l.025.033c.066.089.14.182.221.278.027.032.056.064.085.1.076.087.159.174.249.264l.082.084c.119.114.249.231.391.348.032.027.068.053.1.08.119.094.245.189.38.283.05.035.1.07.152.1.163.11.336.218.523.325.019.011.036.023.056.034.206.116.43.229.666.34.065.031.134.061.2.091q.286.127.6.248c.073.028.144.057.22.084.28.1.575.2.891.292l.153.041c.274.076.564.148.866.216l.314.067c.3.062.616.118.944.17.078.012.151.026.231.038l.081.013c-.028.057-.046.121-.071.18s-.043.106-.063.16a4.432,4.432,0,0,0-.167.576c-.009.04-.021.078-.028.118a5.385,5.385,0,0,0-.092.743c0,.064,0,.129,0,.193-.005.176-.007.354,0,.541s.025.348.043.523c.007.065.012.129.021.195a20.363,20.363,0,0,0,2.363,6.549l.012.02C162.779,1214.089,163.1,1218.6,161.737,1223.483Zm19.66-10.027c-3.434-.557-7.235-1.3-11.3-2.2-.06-.207-.125-.423-.2-.644l-.007-.024c-.132-.416-.28-.834-.439-1.243-.085-.215-.174-.436-.27-.658-.2-.466-.416-.928-.647-1.373q-.182-.349-.382-.7c-.289-.506-.6-.992-.927-1.461-.063-.09-.131-.174-.195-.263-.1-.142-.214-.278-.321-.417-.173-.224-.342-.45-.524-.664-.144-.17-.3-.328-.448-.491-.078-.086-.145-.184-.225-.267a86.776,86.776,0,0,1,23.59,7.709,47.681,47.681,0,0,1,8.693,5.426.758.758,0,0,0,.161.106c.015.016.032.03.047.045.181.188.371.368.569.543l.077.069c.206.177.421.349.642.517l.139.106c.218.163.441.323.67.483l.167.115c.228.158.459.315.694.474.811.549,1.649,1.116,2.526,1.813a5.353,5.353,0,0,1,.729.714c.071.084.132.176.2.263a6.13,6.13,0,0,1,.388.56c.065.108.124.22.183.331.1.189.2.381.279.577.05.116.1.233.143.351.078.207.147.416.209.627.02.067.041.133.06.2C202.182,1220.33,194.206,1215.534,181.4,1213.456Z" fill="#1a1a1a"/><path id="Path_743" data-name="Path 743" d="M160.767,1194.354a3.584,3.584,0,1,0-3.584,3.585A3.588,3.588,0,0,0,160.767,1194.354Zm-3.584,2.085a2.085,2.085,0,1,1,2.084-2.085A2.088,2.088,0,0,1,157.183,1196.439Z" fill="#1a1a1a"/></g><g id="Group_1009" data-name="Group 1009" transform="matrix(-0.627565, 0, 0, 0.627565, 537.423334, -817.684623)" style=""><path id="Path_745" data-name="Path 745" d="M541.826,1487.5a.75.75,0,0,0-.75.75v5.669a.75.75,0,0,0,1.5,0v-5.669A.75.75,0,0,0,541.826,1487.5Z" fill="#1a1a1a"/><path id="Path_746" data-name="Path 746" d="M536.156,1480.409a.75.75,0,0,0-.75.75v5.67a.75.75,0,0,0,1.5,0v-5.67A.75.75,0,0,0,536.156,1480.409Z" fill="#1a1a1a"/><path id="Path_747" data-name="Path 747" d="M547.495,1481.827a.75.75,0,0,0-.75.75v5.669a.75.75,0,0,0,1.5,0v-5.669A.75.75,0,0,0,547.495,1481.827Z" fill="#1a1a1a"/><path id="Path_748" data-name="Path 748" d="M547.495,1494.583a.75.75,0,0,0-.75.75V1501a.75.75,0,0,0,1.5,0v-5.669A.75.75,0,0,0,547.495,1494.583Z" fill="#1a1a1a"/><path id="Path_749" data-name="Path 749" d="M599.209,1532.1a124.234,124.234,0,0,0-2.873-24.184c-6.4-28.037-21.79-38.643-30.176-38.84-.668-.467-3.554-2.733-5.193-7.987-.024-.074-2.08-6.654-2.809-8.393a9.251,9.251,0,0,0-3.345-5.4c2.953-3.39,2.161-8.887,1.928-10.116a.722.722,0,0,0-.034-.171c-.011-.054-.019-.086-.02-.089s-.008-.007-.01-.012a.726.726,0,0,0-.168-.239.533.533,0,0,0-.05-.032.637.637,0,0,0-.069-.045.733.733,0,0,0-.288-.107c-.013,0-.023-.013-.037-.014a.151.151,0,0,0-.021,0c-.016,0-.032,0-.048,0a.725.725,0,0,0-.2.026.415.415,0,0,0-.047.015.739.739,0,0,0-.189.1c-.008.005-.017.007-.024.012l-.029.023,0,0-9.258,7.2a33.2,33.2,0,0,0-8.847,0l-9.289-7.225c-.012-.009-.026-.011-.038-.019a.729.729,0,0,0-.17-.09.665.665,0,0,0-.088-.022.678.678,0,0,0-.149-.02c-.032,0-.063,0-.1,0s-.042,0-.064,0a.846.846,0,0,0-.085.03.594.594,0,0,0-.084.03.764.764,0,0,0-.16.1c-.012.01-.027.014-.038.025l-.006.008a.739.739,0,0,0-.146.195.587.587,0,0,0-.026.069.779.779,0,0,0-.046.125c-.056.27-1.3,6.536,1.92,10.23a9.306,9.306,0,0,0-3.34,5.371c-.2.815-2.86,12.649,4.241,21.66a44.4,44.4,0,0,0,21.694,36.01l.778,3.889-.7.234a5.06,5.06,0,0,0-3.307,6.617,6.933,6.933,0,0,0,6.333,4.763l1.8,8.995-3.561,2.374a3.379,3.379,0,0,0-1.669,2.323,3.721,3.721,0,0,0,1.586,3.147,8.41,8.41,0,0,0,2.547,1.465,3.161,3.161,0,0,0,.7,1.83,3.576,3.576,0,0,0,2.852,1.124l2.148,10.74a.75.75,0,1,0,1.47-.294l-2.579-12.9c.028-.1.058-.186.088-.274s.064-.2.1-.282a2.729,2.729,0,0,1,.131-.26c.037-.07.073-.147.113-.207a2.012,2.012,0,0,1,.146-.19c.04-.048.079-.1.119-.144a1.5,1.5,0,0,1,.155-.131c.039-.031.079-.069.117-.094a1.27,1.27,0,0,1,.159-.083c.036-.017.072-.04.107-.053a1.32,1.32,0,0,1,.154-.045c.03-.008.062-.02.09-.025a1.221,1.221,0,0,1,.147-.019c.02,0,.043-.006.061-.007.061,0,.115,0,.157,0a2.772,2.772,0,0,1,.809.111,42.631,42.631,0,0,1,.652.329,2.067,2.067,0,0,1,.2.218,2.12,2.12,0,0,1,.295.33,81.273,81.273,0,0,1,.33.767l2.651,13.255a.75.75,0,0,0,1.471-.294l-2.408-12.037a2.815,2.815,0,0,0,.782-.538,6.272,6.272,0,0,0,1.542-3.923l.316.237a.75.75,0,0,0,1.2-.6v-4.919h3.5a.75.75,0,0,0,.75-.75v-5.493l1.345-2.69.782.782,5.67,5.67,2.835,2.834,7.93,7.931a.75.75,0,0,0,.53.22l.058,0a.749.749,0,0,0,.548-.305c.06-.083,1.416-2,1.549-6.779h3.515a.75.75,0,0,0,.75-.75C599.269,1535.018,599.249,1533.561,599.209,1532.1Zm-7.1-3.86a13.244,13.244,0,0,1-.656,1.166c-.052.084-.113.162-.167.245-.193.292-.4.578-.611.854-.092.118-.188.232-.284.347s-.2.225-.3.338l-.9-.9-.862-.863c.144-.16.277-.33.414-.5.074-.089.15-.175.222-.266q.447-.567.84-1.174c.055-.086.1-.175.157-.262q.311-.5.58-1.029c.062-.121.123-.241.182-.363.042-.089.092-.175.133-.264l1.679,1.679c-.092.228-.185.455-.289.678C592.2,1528.04,592.157,1528.144,592.106,1528.244Zm-12.271-3.907c-.273.213-.555.413-.844.6-.086.057-.169.12-.256.175a13.273,13.273,0,0,1-1.162.654c-.1.05-.2.092-.3.139-.224.1-.452.2-.681.29l-1.678-1.679c.09-.041.177-.091.267-.134.12-.057.237-.118.356-.179q.531-.272,1.039-.584c.084-.052.171-.1.254-.153q.609-.393,1.178-.844c.088-.069.171-.143.258-.214.168-.139.34-.274.5-.42l1.758,1.758c-.113.1-.221.206-.337.3S579.954,1524.245,579.835,1524.337Zm9.438,1.071q-.3.6-.657,1.166c-.054.086-.115.166-.171.251-.192.29-.393.573-.607.848-.092.119-.19.234-.286.35s-.2.224-.3.336l-4.593-4.593c.147-.162.282-.335.421-.505.07-.085.143-.166.212-.253.3-.38.583-.774.845-1.181.053-.082.1-.168.151-.251q.313-.51.586-1.042c.061-.118.121-.235.179-.355.043-.09.092-.177.134-.267l4.513,4.513c-.093.231-.187.462-.293.688C589.361,1525.211,589.321,1525.311,589.273,1525.408Zm-5.67-5.668q-.3.6-.656,1.166c-.053.084-.113.163-.168.245-.193.292-.4.578-.611.854-.092.118-.188.232-.284.347s-.2.225-.3.338l-.9-.9-.862-.863c.144-.16.277-.33.414-.5.074-.089.15-.175.222-.266q.447-.567.84-1.174c.055-.086.1-.175.158-.262q.309-.5.579-1.029c.062-.121.123-.241.182-.363.043-.089.092-.175.133-.264l1.679,1.679c-.092.228-.185.455-.289.678C583.694,1519.536,583.653,1519.64,583.6,1519.74ZM577,1521.5c-.276.216-.563.419-.855.612-.082.055-.16.114-.243.167q-.568.357-1.168.657c-.1.048-.2.088-.294.134-.227.106-.458.2-.689.294l-4.451-4.451-.059-.064c.1-.045.193-.1.291-.146.126-.061.249-.124.374-.188q.522-.27,1.022-.579c.082-.051.166-.1.247-.149q.6-.39,1.162-.835c.094-.074.183-.153.275-.229.16-.134.325-.261.48-.4l2.241,2.241,2.352,2.351c-.113.1-.221.206-.338.3S577.12,1521.409,577,1521.5Zm-24.742-30.977q-.246-.883-.44-1.745c-.041-.182-.073-.364-.111-.546-.089-.424-.171-.846-.24-1.262-.014-.078-.023-.155-.036-.233a40.583,40.583,0,0,0,16.322,15.742l.016.015,4.921,4.923c-.093.231-.187.461-.293.687-.046.1-.086.2-.134.3-.2.4-.419.789-.657,1.167-.054.085-.115.166-.171.25-.192.29-.393.574-.606.848-.093.119-.19.234-.287.35s-.2.224-.3.336l-13.763-13.762-2.764-2.764q-.156-.4-.3-.8c-.089-.24-.178-.479-.262-.717-.12-.337-.237-.675-.348-1.014s-.216-.684-.317-1.023C552.41,1491.024,552.329,1490.774,552.26,1490.524Zm28.509,26.38c-.2.4-.419.789-.657,1.166-.054.086-.115.166-.171.251-.192.29-.393.574-.606.848-.093.119-.19.234-.287.35s-.2.224-.3.336L576.4,1517.5l-2.242-2.241c.145-.16.278-.331.416-.5.073-.089.15-.175.221-.266q.449-.567.841-1.175c.054-.084.1-.172.155-.257q.313-.508.584-1.039c.06-.116.12-.232.176-.351.044-.09.094-.178.136-.269l4.513,4.513c-.093.231-.187.462-.293.688C580.857,1516.707,580.817,1516.807,580.769,1516.9Zm-9.449-4.477c.144-.16.277-.33.415-.5.073-.089.15-.175.221-.266q.449-.567.841-1.175c.054-.084.1-.171.154-.256q.313-.507.584-1.038c.061-.118.121-.236.179-.356.043-.089.092-.176.134-.267l1.679,1.679c-.092.229-.186.458-.291.682-.047.1-.088.2-.137.3q-.3.6-.655,1.164c-.055.086-.116.167-.172.252-.192.29-.393.573-.607.848-.092.119-.189.234-.286.349s-.2.224-.3.337l-.9-.9Zm-4.371-2.249,2.237,2.236c-.1.088-.194.181-.294.266s-.2.169-.3.25q-.4.318-.823.6c-.061.04-.118.085-.178.125-.344.224-.7.43-1.063.622-.1.051-.2.1-.3.146-.174.086-.352.162-.529.241a88.417,88.417,0,0,1-10.325-16.066Zm.021,5.557c.114-.057.227-.117.34-.177.335-.18.663-.371.982-.576.066-.042.134-.08.2-.122.373-.247.732-.514,1.082-.794.091-.073.179-.15.268-.225.14-.118.283-.23.419-.353l.862.863.9.9c-.111.1-.218.2-.332.3s-.223.187-.338.277q-.417.325-.859.617c-.075.05-.147.1-.224.154-.371.235-.754.451-1.145.649-.1.053-.212.1-.318.147-.2.1-.413.182-.622.268-.409-.471-.914-1.065-1.5-1.772C566.781,1515.838,566.874,1515.784,566.97,1515.735Zm26.983,10.822-1.659-1.659-6.289-6.289-.556-.556-.127-.128-13.489-13.489a58.785,58.785,0,0,0,20.135,4.31c.3.015.612.016.915.027.7.025,1.406.056,2.122.061a121.6,121.6,0,0,1,2.642,21.416Zm-13.19-47.624c4.392,4.72,10.323,13.451,13.891,28.38q-.931-.014-1.848-.048c-.424-.017-.86-.023-1.275-.046-.984-.054-1.951-.135-2.909-.228-.668-.066-1.314-.148-1.959-.231-.561-.072-1.124-.14-1.676-.226-.647-.1-1.271-.218-1.894-.337-.377-.071-.754-.141-1.126-.219-.679-.143-1.346-.294-2-.456-.257-.063-.511-.131-.766-.2a50.976,50.976,0,0,1-6.38-2.13l-.386-.157q-.939-.4-1.824-.815c-.191-.091-.378-.187-.567-.28a43.214,43.214,0,0,1-6.38-3.817c-.129-.094-.255-.189-.381-.283-.238-.178-.467-.355-.7-.532a36.815,36.815,0,0,1-11.342-14.421l-.008-.019c-.04-.1-.073-.184-.1-.256-.021-.056-.042-.111-.056-.15,0-.124.014-.247.02-.37.011-.22.019-.439.045-.659.014-.125.039-.249.058-.374.036-.232.072-.464.124-.694.027-.124.064-.245.1-.368.058-.224.12-.449.194-.671.047-.143.1-.283.158-.424.072-.19.147-.38.231-.569s.167-.351.256-.525c.071-.139.143-.277.22-.414q.183-.322.389-.636c.055-.084.111-.167.168-.25.171-.246.35-.488.542-.724.029-.037.06-.074.091-.111.22-.264.451-.524.7-.774l.01-.011a12.727,12.727,0,0,1,1.082-.976l.009-.008a16.531,16.531,0,0,1,10.443-3.335C569.334,1470.571,575.026,1472.768,580.763,1478.933Zm-26.9-32.819-2.366-.789,3.988-5.984C555.589,1441.249,555.425,1444.136,553.865,1446.114Zm-25.7-6.772,3.989,5.983-2.367.789C528.226,1444.136,528.063,1441.249,528.164,1439.342Zm2.227,8.645a.749.749,0,0,0,.307-.569v-.027l2.86-.953a.751.751,0,0,0,.387-1.128l-3.106-4.658,5.894,4.584a.75.75,0,0,0,.576.149,31.431,31.431,0,0,1,9.031,0,.75.75,0,0,0,.576-.149l5.894-4.585-3.1,4.659a.75.75,0,0,0,.386,1.128l2.86.953v.026a.751.751,0,0,0,.307.57,9.578,9.578,0,0,1,2.179,2.169c-.28-.194-.554-.364-.826-.525l-.2-.116c-.249-.141-.5-.273-.737-.388-.089-.042-.174-.076-.261-.116-.143-.063-.286-.125-.427-.181s-.283-.11-.422-.158l-.031-.01a8.485,8.485,0,0,0-3.283-.491,6.88,6.88,0,0,0-3.61,1.2l-.027.02a.751.751,0,0,0,.127,1.261l3.185,1.593a10.11,10.11,0,0,0-7.1,4.607,10.112,10.112,0,0,0-7.1-4.607l3.185-1.593a.75.75,0,0,0,.128-1.261l-.03-.022a6.871,6.871,0,0,0-3.607-1.195,8.554,8.554,0,0,0-3.175.457c-.057.019-.113.036-.171.056-.12.042-.24.088-.363.136-.17.066-.342.14-.516.218-.061.028-.119.051-.18.08-.252.119-.509.257-.769.4l-.176.1c-.275.162-.554.335-.837.531A9.588,9.588,0,0,1,530.391,1447.987Zm18.521,6.993a2.085,2.085,0,1,1-2.084,2.085A2.088,2.088,0,0,1,548.912,1454.98Zm-7.2,5.628c.037-.1.075-.216.114-.329.038.113.076.224.112.328a12.122,12.122,0,0,0,1.723,3.8,19.977,19.977,0,0,0-1.149,2.916,7.919,7.919,0,0,1-.686,1.7,7.913,7.913,0,0,1-.687-1.7,20.035,20.035,0,0,0-1.149-2.917A12.072,12.072,0,0,0,541.712,1460.608Zm-4.888-3.543a2.085,2.085,0,1,1-2.085-2.085A2.087,2.087,0,0,1,536.824,1457.065Zm-10.442,2.467c1.186,6,3.861,13.85,9.749,13.873.051,0,.155.008.3.008a6.639,6.639,0,0,0,4.5-1.637.75.75,0,0,0-1.045-1.076,5.349,5.349,0,0,1-3.673,1.207l-.057,0c-4.043,0-6.317-5.086-7.513-9.353a53.145,53.145,0,0,1-1.634-9.442c.08-.078.159-.153.238-.228.12-.113.241-.231.36-.337s.261-.224.392-.333.235-.2.35-.293.256-.194.383-.288.226-.17.336-.247c.128-.088.252-.165.377-.246.107-.068.215-.142.32-.2.125-.074.246-.139.369-.206.1-.055.2-.115.3-.166.122-.062.241-.114.36-.168.1-.044.193-.092.287-.131.12-.05.238-.092.355-.135.088-.032.178-.069.264-.1.121-.04.237-.071.354-.1.08-.022.161-.049.239-.068.118-.029.232-.05.347-.073.072-.014.147-.032.218-.044.119-.02.234-.032.35-.045.06-.007.123-.017.183-.022.119-.011.233-.014.347-.018.052,0,.106-.006.157-.007.12,0,.235,0,.349.009l.122,0c.117.008.228.021.339.034l.1.01c.122.017.239.039.352.061.017,0,.035.006.051.009.114.024.221.051.325.079l.045.011c.118.032.228.067.333.1l-4.346,2.173a.75.75,0,0,0,.41,1.417,9.965,9.965,0,0,1,1.868.047,3.594,3.594,0,1,0,3.537,1.06,8.13,8.13,0,0,1,3.564,3.736,15,15,0,0,0-.655,1.721,13.168,13.168,0,0,1-1.422,3.288.75.75,0,0,0-.524,1.126,15.842,15.842,0,0,1,1.368,3.258c.492,1.49.916,2.776,2.111,2.776s1.619-1.286,2.111-2.776a15.832,15.832,0,0,1,1.367-3.258.75.75,0,0,0-.524-1.126,13.172,13.172,0,0,1-1.423-3.289,14.834,14.834,0,0,0-.653-1.719,8.115,8.115,0,0,1,3.562-3.735,3.581,3.581,0,1,0,3.54-1.061,9.867,9.867,0,0,1,1.864-.048.75.75,0,0,0,.412-1.417l-4.331-2.166c1.453-.487,4.121-.724,7.471,1.883.024.019.048.035.072.054.166.132.337.279.507.425.084.073.168.139.253.216.135.12.272.254.408.384l.18.172a53.239,53.239,0,0,1-1.634,9.442c-1.2,4.267-3.469,9.353-7.513,9.353l-.057,0a5.3,5.3,0,0,1-3.673-1.207.75.75,0,0,0-1.045,1.076,6.639,6.639,0,0,0,4.5,1.637c.145,0,.249-.005.3-.008,7.076-.027,9.513-11.36,10.3-17.191.433,1.29,1,3.03,1.716,5.327a18.214,18.214,0,0,0,4.41,7.615,16.576,16.576,0,0,0-10.594,4.642c-.141.1-.3.2-.451.3-.174.114-.338.227-.524.342s-.376.218-.564.327-.381.226-.586.338-.432.216-.649.325-.411.213-.632.314-.484.2-.728.3c-.225.094-.441.193-.675.281-.265.1-.548.184-.823.274-.233.077-.457.161-.7.23-.3.088-.626.155-.941.229-.231.055-.453.12-.69.167-.365.071-.748.117-1.128.168-.2.027-.4.068-.606.089a18.232,18.232,0,0,1-1.831.093c-7.86,0-10.7-3.892-10.721-3.928-.011-.016-.023-.031-.035-.046A22.933,22.933,0,0,1,526.382,1459.532Zm26.779,51.8.021.011c.958.52,1.949,1.015,2.962,1.486.035.017.068.036.1.053l-2.108.7-.495.165Zm6.8,3.115.34.143c.126.459.269.9.42,1.33.044.125.091.246.137.369q.179.477.378.93c.049.113.1.227.149.337.18.386.367.762.57,1.119h-1.328l-2.61-3.48-.793-1.057,1.071-.357.492.2.357.146Q559.577,1514.3,559.96,1514.449Zm3.637,6.53-2.027,4.054-.971-4.856h2.346C563.159,1520.462,563.376,1520.733,563.6,1520.979Zm-6.076,12.153-2.478-12.391c.094-.026.18-.056.278-.08s.212-.05.321-.074c.278-.06.573-.113.881-.159.085-.013.164-.029.25-.04q.6-.081,1.264-.13c.109-.008.226-.013.337-.019.226-.014.465-.021.7-.03l1.4,7.009-1.729,3.458Zm-7.9-12.524a3.6,3.6,0,0,1,2.36-4.722l1.329-.442h0l.84-.279,1.57-.524,3.052,4.07c-.152.007-.288.022-.437.03-.216.013-.43.027-.637.045-.3.025-.588.057-.87.092-.185.022-.373.044-.55.071-.295.044-.571.1-.843.155-.138.028-.286.053-.418.084a11.159,11.159,0,0,0-1.1.316c-2.781.98-2.919,2.555-2.925,2.731a.75.75,0,0,0,.219.558l.82.819A5.213,5.213,0,0,1,549.624,1520.608Zm2.994,1.464a2.642,2.642,0,0,1,1-.808l.452,2.259Zm1.043,19.47c-.528-.467-1.142-1.163-1.07-1.827a1.877,1.877,0,0,1,.929-1.2c.02-.012.041-.024.06-.037l3.81-2.54.643.482-2.5,6.25A7.437,7.437,0,0,1,553.661,1541.542Zm11.668,2.419c-.025-.076-.06-.142-.088-.214-.038-.1-.075-.195-.118-.286s-.1-.2-.161-.3c-.048-.083-.094-.168-.147-.247s-.133-.177-.2-.262c-.058-.07-.113-.143-.174-.208-.077-.081-.161-.151-.244-.224-.066-.056-.128-.116-.2-.168-.091-.067-.19-.124-.287-.182-.071-.043-.139-.09-.214-.128-.107-.054-.223-.1-.336-.139-.075-.028-.145-.063-.222-.087a4.159,4.159,0,0,0-.408-.093c-.069-.014-.133-.034-.2-.045a4.7,4.7,0,0,0-.66-.047,3.225,3.225,0,0,0-1.153.2,3.838,3.838,0,0,0-2.191,2.893,8.254,8.254,0,0,0-.195,1.12,1.734,1.734,0,0,1-1.043-.529,1.861,1.861,0,0,1-.354-1.311l2.543-6.358,3.36,2.52a.75.75,0,0,0,1.2-.6v-1.335l2.736,2.052C566.465,1542.528,565.809,1543.551,565.329,1543.961Zm7.007-14.948a.75.75,0,0,0-.079.335v4.92h-3.5a.75.75,0,0,0-.75.75v4.169l-.222-.166h0l-4.247-3.185a.757.757,0,0,0-.2-.1c-.024-.008-.048-.01-.072-.016a.747.747,0,0,0-.147-.024c-.01,0-.02,0-.031,0s-.021.008-.033.008a.729.729,0,0,0-.717.742v1.335l-3.968-2.977,3.567-7.134h0l3.239-6.478a.753.753,0,0,0-.141-.867,10.174,10.174,0,0,1-1.1-1.32,15.463,15.463,0,0,1-2.273-5.136.748.748,0,0,0-.435-.5l-.7-.3c-.257-.1-.524-.2-.806-.315l-.311-.128c-.161-.065-.328-.134-.5-.207a.69.69,0,0,0-.128-.094.726.726,0,0,0-.319-.1c-.054-.023-.106-.048-.16-.071-.983-.421-1.949-.865-2.886-1.335l-.118-.061c-.962-.485-1.9-.992-2.8-1.521a42.916,42.916,0,0,1-21.153-33.266c.025.02.059.042.085.062q.231.18.5.366c.055.039.1.076.163.115.239.16.5.322.782.482.06.034.127.067.189.1.232.126.476.25.736.373.105.049.212.1.321.144.255.113.524.22.805.325.108.04.21.081.322.12.393.137.807.266,1.251.382.064.017.134.03.2.046q.578.144,1.213.257c.155.028.315.051.474.076q.558.086,1.159.144c.169.016.333.034.507.047.57.043,1.16.072,1.788.072.605,0,1.191-.037,1.768-.089.144-.013.286-.027.429-.043a20.5,20.5,0,0,0,3.228-.626c.126-.035.249-.07.372-.107a22.228,22.228,0,0,0,2.807-1.048l.3-.14c.105-.05.216-.1.319-.147-.038.07-.064.144-.1.214-.158.308-.306.617-.436.932-.07.167-.133.336-.2.506q-.143.39-.256.784c-.055.19-.11.379-.156.571-.065.276-.115.553-.16.831-.028.17-.063.338-.083.509a11.421,11.421,0,0,0-.087,1.355c0,.482.016.97.043,1.463,0,.063.011.128.014.191q.042.669.116,1.349l.008.06c.587,5.226,2.64,11,6.134,17.259q.412.742.836,1.466l.021.035c.337.575.68,1.138,1.024,1.695l.034.054a96.87,96.87,0,0,0,6.015,8.58l.057.074q.333.425.655.827l.084.1c.089.11.18.225.266.332.114.141.215.262.324.4l.112.137c.885,1.079,1.616,1.925,2.088,2.459.287.324.5.554.634.7l.164.178.016.017,4.825,4.825.934.934Zm5.674-1.792c.12-.058.238-.118.356-.179q.531-.272,1.04-.585c.084-.052.17-.1.253-.152q.609-.393,1.178-.843c.089-.07.174-.146.261-.218.167-.139.339-.272.5-.417l2.241,2.241,2.352,2.351c-.113.1-.221.206-.338.3s-.229.192-.347.284c-.276.215-.562.418-.854.611-.082.055-.161.115-.245.168q-.567.357-1.166.656c-.1.05-.2.092-.306.139-.223.1-.45.2-.678.29l-4.514-4.514C577.834,1527.313,577.92,1527.264,578.01,1527.221Zm5.67,5.669c.12-.058.237-.118.356-.179q.529-.272,1.039-.585c.084-.052.171-.1.254-.153q.609-.391,1.178-.843c.088-.069.171-.143.257-.214.169-.139.341-.274.5-.42l1.758,1.758c-.111.1-.22.2-.335.3s-.231.194-.351.287c-.274.214-.557.415-.848.607-.084.056-.165.117-.25.171q-.567.357-1.166.656c-.1.049-.2.089-.3.135-.226.106-.456.2-.687.293l-1.679-1.679C583.5,1532.983,583.59,1532.933,583.68,1532.89Zm8.961,9.362-6.394-6.394c.09-.04.176-.09.265-.132.122-.059.242-.121.362-.182q.526-.27,1.03-.58c.087-.053.176-.1.262-.157q.607-.391,1.174-.84c.09-.072.176-.148.266-.222.166-.138.336-.27.5-.414l3.413,3.413A15.831,15.831,0,0,1,592.641,1542.252Zm1.936-6.567-3.414-3.415c.147-.163.282-.336.421-.505.07-.085.143-.167.212-.253q.45-.57.845-1.181c.053-.083.1-.168.151-.251q.313-.51.586-1.042c.061-.118.121-.235.178-.355.043-.09.093-.177.134-.267l4.028,4.027c.027,1.088.043,2.174.049,3.242Z" fill="#1a1a1a"/></g><g id="Capa_1" style="" transform="matrix(0.119411, 0, 0, 0.128134, 83.917083, 159.22386)"><g transform="matrix(1, 0, 0, 1, -185.063719, -39.382831)"><path d="M451.654,170.419c-0.628-1.408-2.01-2.331-3.552-2.37l-17.659-0.447c-9.273-19.402-22.852-34.063-35.726-44.631 c-24.038-19.732-49.459-28.944-57.068-31.412c-2.915-9.171-18.556-39.019-99.936-51.613c-45.349-7.018-86.648,0.149-119.427,20.727 c-31.296,19.648-54.184,50.883-66.188,90.326C29.431,225.47,0.82,275.609,0.534,276.107c-1.102,1.915-0.443,4.36,1.472,5.462 c0.629,0.361,1.315,0.534,1.992,0.534c1.384,0,2.73-0.72,3.47-2.006c0.291-0.505,29.334-51.37,52.283-126.77 c11.436-37.574,33.147-67.271,62.789-85.881c31.125-19.54,70.528-26.317,113.949-19.596c73.28,11.341,89.588,36.549,93.002,44.727 c-7.364,3.781-25.148,14.666-35.238,35.763c-0.953,1.992-0.11,4.381,1.882,5.334c0.557,0.267,1.145,0.393,1.723,0.393 c1.492,0,2.925-0.839,3.611-2.275c9.783-20.454,28.198-30.43,33.124-32.805c3.606,1.16,13.971,4.763,26.683,11.476l-43.979,44.678 c-5.211-0.659-10.508-1.158-15.906-1.45c-2.214-0.113-4.091,1.572-4.21,3.778s1.572,4.091,3.778,4.21 c3.672,0.198,7.288,0.509,10.869,0.883c-4.031,6.761-9.737,18.797-9.334,32.171c-6.597-2.332-10.509-4.139-10.662-4.211 c-1.997-0.941-4.381-0.085-5.323,1.913s-0.087,4.38,1.91,5.322c0.704,0.333,5.654,2.627,13.594,5.37 c-5.222,14.988-13.769,36.164-20.282,51.905c-7.992,19.312-11.06,40.513-8.87,61.311l9.973,94.744 c0.216,2.055,1.952,3.581,3.973,3.581c0.14,0,0.281-0.007,0.424-0.022c2.197-0.23,3.791-2.199,3.559-4.396l-9.973-94.744 c-2.05-19.477,0.822-39.33,8.306-57.414c6.579-15.901,15.218-37.314,20.504-52.511c13.26,3.987,31.565,7.995,51.609,7.995 c15.048,0,31.071-2.268,46.655-8.492c11.47,11.768,20.007,25.302,24.243,38.859c0.552,1.768,2.242,2.93,4.096,2.797 c1.849-0.129,3.367-1.511,3.668-3.339c3.502-21.215,2.22-39.693-2.039-55.677c4.67-3.928,9.106-8.309,13.181-13.08 C452.044,173.473,452.282,171.828,451.654,170.419z M310.703,197.428c-1.682-14.791,6.622-28.861,9.922-33.776 c27.825,4.125,52.466,13.722,72.079,28.187c3.053,2.251,5.969,4.64,8.765,7.121C367.97,210.906,331.976,203.89,310.703,197.428z M433.728,226.899c-7.939-15.444-20.44-29.82-36.276-41.5c-19.408-14.313-43.408-24.073-70.374-28.789l41.446-42.106 c6.901,4.053,14.203,8.954,21.316,14.814C421.322,155.253,436.043,188.022,433.728,226.899z M435.297,179.381 c-0.435-1.246-0.887-2.475-1.357-3.687l5.116,0.129C437.827,177.046,436.573,178.232,435.297,179.381z"/><path d="M227.391,98.885c-9.917,0-21.974,2.535-35.837,7.535c-1.204,0.435-2.127,1.418-2.484,2.647 c-0.357,1.229-0.104,2.554,0.68,3.565c14.453,18.648,30.042,28.104,46.336,28.104c3.945,0,7.87-0.581,11.667-1.727 c4.613-1.391,8.419-4.684,10.444-9.033c2.005-4.309,2.078-9.284,0.199-13.65C254.97,108.369,246.811,98.885,227.391,98.885z M199.638,112.105c5.23-1.693,10.122-2.97,14.663-3.841c-2.31,3.842-3.91,8.729-3.655,14.566 C206.938,119.899,203.266,116.326,199.638,112.105z M250.943,126.601c-1.063,2.285-3.069,4.017-5.502,4.751 c-3.046,0.919-6.194,1.385-9.356,1.385c-5.471,0-10.906-1.346-16.28-4.018c-4.145-12.975,3.822-19.931,6.437-21.802 c0.381-0.008,0.775-0.032,1.149-0.032c12.097,0,20.056,4.24,23.655,12.604C252.04,121.798,252.003,124.323,250.943,126.601z"/></g><path style="stroke:#000000;stroke-width:8;stroke-linecap:round;stroke-linejoin:round;stroke-miterlimit:10;" d="M 67.91 88.621 C 68.043 87.959 68.113 87.268 68.113 86.558 C 68.113 81.622 64.715 77.621 60.523 77.621 C 60.327 77.621 60.132 77.63 59.939 77.647"/></g><g id="svg-1" style="" transform="matrix(0.169595, 0, 0, 0.169595, 182.047819, 202.328123)"><path d="M 304.362 185.432 C 303.388 184.347 280.462 159.281 237.235 150.354 C 235.831 143.572 232.299 136.802 226.658 130.116 C 210.74 111.251 178.51 97.763 144.547 95.752 C 109.289 93.672 77.738 103.855 55.71 124.445 C 19.989 157.837 -7.728 200.932 -21.069 223.649 C -25.796 231.698 -32.069 238.532 -39.715 243.961 L -100.51 287.134 C -102.31 288.413 -102.73 290.91 -101.45 292.711 C -100.17 294.512 -97.678 294.935 -95.876 293.656 L -35.082 250.484 C -27.134 244.84 -20.528 237.825 -15.379 229.64 C 21.421 257.502 72.988 265.027 95.808 267.037 C 102.242 267.604 108.842 267.841 110.787 267.841 C 116.692 267.841 129.315 267.241 144.965 263.018 C 160.946 258.706 182.647 249.775 202.785 231.309 C 191.541 257.611 176.401 277.235 153.922 295.838 C 138.426 308.661 130.448 328.043 132.033 349.014 C 133.459 367.881 142.851 384.704 156.545 392.921 C 165.997 398.592 175.237 400.506 183.406 400.506 C 191.92 400.506 199.264 398.426 204.473 396.354 C 201.801 406.18 198.525 415.291 194.505 422.757 C 193.457 424.702 194.185 427.128 196.13 428.175 C 196.734 428.5 197.383 428.654 198.023 428.654 C 199.448 428.654 200.827 427.891 201.548 426.55 C 215.992 399.726 221.415 354.801 223.421 321.838 C 224.748 300.052 228.09 278.245 233.353 257.022 C 238.416 236.611 242.728 221.313 245.889 212.541 L 302.752 191.863 C 304 191.409 304.942 190.364 305.265 189.075 C 305.588 187.786 305.249 186.422 304.362 185.432 Z M 61.173 130.291 C 81.582 111.212 111.017 101.784 144.074 103.739 C 175.955 105.626 205.971 118.005 220.543 135.276 C 227.011 142.942 230.147 150.544 229.902 157.923 C 225.815 162.337 215.851 170.953 206.858 170.263 C 203.785 170.027 198.482 166.83 192.868 163.446 C 176.756 153.733 152.402 139.056 121.727 153.589 C 109.89 159.195 97.382 166.168 84.14 173.551 C 55.843 189.326 24.106 207.013 -4.837 212.423 C 9.965 189.069 33.062 156.568 61.173 130.291 Z M 188.7 173.186 C 188.7 178.619 184.28 183.038 178.847 183.038 C 173.414 183.038 168.995 178.619 168.995 173.186 C 168.995 168.409 172.327 164.433 176.899 163.535 C 180.932 165.616 184.686 167.856 188.158 169.948 C 188.518 170.987 188.7 172.072 188.7 173.186 Z M -11.22 222.745 C -10.949 222.296 -10.666 221.83 -10.387 221.37 C 21.814 217.446 56.955 197.865 88.036 180.538 C 101.159 173.222 113.555 166.311 125.151 160.818 C 141.319 153.161 155.465 154.79 167.556 159.338 C 163.531 162.61 160.996 167.59 160.996 173.186 C 160.996 183.03 169.004 191.038 178.848 191.038 C 188.124 191.038 195.765 183.925 196.615 174.867 C 200.15 176.742 203.299 178.013 206.245 178.24 C 213.046 178.768 219.584 175.949 224.862 172.527 C 221.054 178.242 215.968 182.49 212.807 184.798 C 211.072 186.065 195.39 199.173 182.817 200.098 C 172.414 200.861 166.007 196.208 159.216 191.281 C 151.566 185.731 143.654 179.993 130.993 183.158 C 98.096 191.382 81.516 207.702 84.309 229.112 C 86.136 243.121 91.858 252.916 96.861 259.048 C 74.895 257.055 23.817 249.637 -11.22 222.745 Z M 108.847 259.806 C 105.739 257.342 94.762 247.391 92.244 228.077 C 90.688 216.155 96.485 200.031 132.933 190.919 C 141.982 188.657 147.512 192.673 154.519 197.756 C 161.819 203.053 170.114 209.052 183.403 208.076 C 195.021 207.222 206.667 199.344 211.802 195.426 C 212.501 195.998 213.344 196.668 214.295 197.4 C 212.902 202.555 211.444 207.489 209.907 212.216 C 170.934 259.262 117.232 259.995 108.847 259.806 Z M 225.588 255.096 C 220.209 276.79 216.794 299.082 215.438 321.351 C 214.428 337.948 212.124 363.227 206.935 386.384 C 201.602 389.356 181.696 398.681 160.661 386.06 C 149.158 379.158 141.245 364.731 140.012 348.411 C 138.624 330.063 145.554 313.148 159.023 302.001 C 190.947 275.581 208.685 247.306 221.232 202.36 C 225.753 205.367 231.354 208.678 237.742 211.588 C 234.542 220.844 230.463 235.445 225.588 255.096 Z M 242.892 205.118 C 233.896 201.239 226.319 196.31 221.272 192.615 C 243.925 189.109 267.534 189.547 283.097 190.498 L 242.892 205.118 Z M 225.979 183.875 C 230.951 178.646 235.903 171.473 237.442 162.646 C 237.672 161.323 237.818 159.998 237.885 158.673 C 262.4 164.189 279.876 175.306 289.558 182.899 C 275.325 181.769 250.758 180.721 225.979 183.875 Z" style="stroke-width: 1;"/></g><g id="svg-2" style="" transform="matrix(0.146441, 0, 0, 0.146441, 34.55558, 277.020322)"><g transform="matrix(1, 0, 0, 1, 191.056227, 23.381704)"><path d="M461.572,360.087c-22.648-18.816-60.982-35.363-113.947-49.186c-22.111-5.77-42.299-9.832-55.812-12.294 c10.886-7.989,28.758-23.441,25.46-36.792c-0.767-3.108-2.715-5.744-5.385-7.373c19.826-19.595,28.359-35.959,25.352-48.652 c-0.747-3.154-2.705-5.382-5.514-6.271c-2.062-0.652-4.293-0.486-6.52,0.153c3.272-7.224,5.597-14.141,6.937-20.708 c4.731-23.183,1.667-41.254-7.451-43.947c-1.876-0.552-8.335-1.508-12.637,9.482c-0.998,2.55-1.995,5.279-3.05,8.169 c-0.123,0.337-0.249,0.681-0.374,1.023c-0.244-11.657-0.954-26.538-2.794-40.464c-0.069-0.527-7.306-52.273-21.632-52.273 c-0.117,0-0.237,0.003-0.355,0.011c-6.901,0.41-9.836,10.388-10.133,34.437c-0.129,10.415-0.733,20.518-1.676,30.198 c-2.555-11.361-6.199-25.758-10.756-39.005c-0.174-0.506-17.837-50.588-31.934-46.85c-6.681,1.773-7.576,12.135-3.088,35.763 c2.345,12.347,3.921,24.384,4.923,35.877c-2.808-8.276-6.103-17.187-9.75-25.58c-0.213-0.491-21.755-49.034-35.515-44.198 c-6.521,2.293-6.6,12.692-0.27,35.896c4.218,15.463,7.151,30.524,9.16,44.661c-4.895-10.517-11.462-23.689-18.665-35.565 c-0.278-0.459-28.173-45.661-41.15-39.006c-6.153,3.151-4.828,13.467,4.573,35.604c7.353,17.315,12.879,34.258,17.04,49.978 c-7.925-9.23-19.413-21.953-31.227-32.779c-9.059-8.301-19.405-16.071-28.387-21.317c-14.908-8.709-19.719-6.801-22.039-4.606 c-5.024,4.748-0.865,14.279,14.358,32.9c17.214,21.055,30.554,42.424,40.615,61.273c-9.119-8.356-18.577-16.176-28.291-23.352 c-6.421-4.743-12.552-8.975-18.223-12.578c-0.453-0.288-45.496-28.428-54.181-16.712c-4.117,5.554,1.645,14.212,19.888,29.885 c11.843,10.175,22.451,20.673,31.864,30.985c-5.936-2.877-11.589-5.423-16.918-7.617c-0.497-0.205-49.757-20.053-56.261-6.997 c-3.084,6.187,4.101,13.705,24.801,25.952c12.571,7.439,24.854,15.775,36.768,24.938c-3.736-0.94-7.334-1.775-10.772-2.496 c-0.524-0.11-52.569-10.649-56.589,3.371c-1.905,6.646,6.53,12.729,29.115,21c5.527,2.024,11.048,4.216,16.555,6.554 c-11.323,2.569-49.152,12.106-47.641,24.486c0.837,6.861,10.979,9.173,34.997,7.979c5.327-0.262,10.721-0.398,16.158-0.417 c-2.362,1.078-4.63,2.154-6.775,3.224c-0.391,0.194-39.022,19.573-34.234,31.226c1.116,2.717,3.601,4.081,7.973,4.081 c4.77,0,11.787-1.626,21.718-4.895c3.332-1.097,6.717-2.12,10.13-3.102c3.373,2.584,11.011,5.991,27.844,5.991 c3.007,0,6.309-0.11,9.931-0.351c4.18,4.654,17.199,15.036,47.761,10.671c4.245-0.604,7.558,0.435,10.428,3.276 c13.906,13.767,10.825,62.999,8.464,80.807c-0.29,2.19,1.25,4.201,3.439,4.491c0.178,0.023,0.355,0.035,0.531,0.035 c1.975,0,3.693-1.462,3.96-3.474c0.368-2.774,8.799-68.171-10.764-87.542c-4.667-4.622-10.449-6.479-17.19-5.514 c-18.312,2.618-29.131-0.577-35.091-3.86c3.124-0.383,6.428-0.846,9.935-1.405c2.182-0.348,3.668-2.398,3.32-4.58 c-0.348-2.181-2.391-3.663-4.58-3.32c-24.217,3.861-37.836,3.041-45.284,1.428c10.177-2.44,20.632-4.401,31.293-5.827 c2.19-0.293,3.728-2.306,3.435-4.495c-0.293-2.189-2.309-3.725-4.495-3.435c-17.139,2.292-33.789,5.899-49.598,10.722 c-0.536-3.435-2.463-6.412-4.673-8.702c2.861-1.692,5.964-3.398,9.315-5.065c5.954-2.97,14.809-6.844,22.636-9.937 c3.3,0.161,6.606,0.356,9.918,0.604c0.102,0.007,0.203,0.011,0.303,0.011c2.073,0,3.827-1.6,3.984-3.701 c0.165-2.203-1.487-4.123-3.69-4.288c-15.528-1.164-30.981-1.386-45.944-0.669c0.285-4.381-1.439-8.852-3.12-12.076 c5.972-1.924,12.822-3.749,20.305-5.212c2.473-0.488,5.136-0.961,8.071-1.44c11.262,5.292,22.43,11.199,33.405,17.719 c0.641,0.381,1.344,0.563,2.039,0.563c1.365,0,2.695-0.699,3.443-1.958c1.128-1.899,0.477-4.31-1.396-5.481 c-22.281-13.942-54.515-27.134-64.065-30.632c-1.05-0.385-2.053-0.76-3.014-1.126c2.249-2.736,4.62-6.536,5.432-11.016 c6.232,0.558,13.227,1.547,20.662,3.112c8.43,1.767,17.857,4.237,28.021,7.336c6.297,5.381,12.478,10.991,18.519,16.836 c0.776,0.751,1.779,1.125,2.781,1.125c1.046,0,2.091-0.407,2.875-1.219c1.536-1.588,1.495-4.12-0.093-5.656 c-21.305-20.613-44.267-38.465-68.307-53.125c4.305-2.338,8.3-5.976,9.491-11.17c3.469,1.178,7.075,2.52,10.775,4.043 c10.174,4.19,21.599,9.718,33.959,16.422c11.789,14.423,21.103,27.884,28.017,38.818c0.761,1.204,2.059,1.863,3.385,1.863 c0.73,0,1.47-0.2,2.134-0.62c1.867-1.181,2.424-3.651,1.243-5.519c-13.55-21.431-36.117-52.358-68.344-81.547 c4.087-1.349,8.423-4.32,11.144-10.581c2.155,1.246,4.347,2.569,6.566,3.979c5.513,3.504,11.489,7.629,17.76,12.262 c15.355,11.343,30.075,24.315,43.767,38.552c4.363,9.516,7.699,17.79,10.11,24.236c0.601,1.607,2.126,2.6,3.747,2.6 c0.465,0,0.939-0.082,1.4-0.254c2.069-0.774,3.12-3.079,2.346-5.148c-8.282-22.149-27.184-65.298-61.243-107.538 c3.852-1.068,7.91-3.439,10.919-7.996c3.877,2.976,7.938,6.351,12.044,10.114c20.797,19.058,40.656,44.245,40.854,44.497 c0.004,0.005,0.01,0.009,0.014,0.015c4.676,21.608,6.755,39.824,7.671,51.859c0.16,2.1,1.913,3.696,3.984,3.696 c0.102,0,0.205-0.004,0.308-0.012c2.203-0.167,3.853-2.089,3.685-4.292c-1.762-23.167-7.724-68.739-27.802-117.763 c0.713,0.082,1.45,0.129,2.203,0.129c1.368,0,2.791-0.154,4.225-0.529c2.677-0.701,5.027-2.059,7.043-4.03 c2.378,3.353,4.783,6.988,7.145,10.881c14.629,24.119,27.38,54.227,28.216,55.967c3.126,39.472-0.507,67.124-0.564,67.541 c-0.299,2.188,1.231,4.205,3.42,4.505c0.184,0.025,0.367,0.038,0.548,0.038c1.967,0,3.682-1.452,3.958-3.456 c0.087-0.632,8.228-62.353-9.928-133.905c0.532,0.031,1.069,0.053,1.613,0.053c4.212,0,8.712-1.007,12.052-3.986 c1.859,3.571,3.706,7.412,5.479,11.491c9.395,21.617,16.446,46.865,18.557,54.768c0.184,40.498-5.77,68.547-5.861,68.964 c-0.47,2.158,0.897,4.289,3.056,4.76c0.287,0.063,0.574,0.093,0.856,0.093c1.839,0,3.495-1.275,3.904-3.146 c0.136-0.623,13.076-61.404,0.652-134.075c1.847,0.358,3.943,0.625,6.125,0.625c2.856,0,5.847-0.456,8.577-1.745 c1.293,3.148,2.556,6.476,3.756,9.962c6.726,19.55,11.437,41.752,13.495,52.342c0.533,2.743,1.136,6.225,1.617,8.662 c-7.676,47.089-21.669,79.353-21.86,79.786c-0.89,2.021,0.027,4.382,2.049,5.272c0.524,0.231,1.072,0.341,1.61,0.341 c1.537,0,3.002-0.891,3.662-2.388c0.255-0.579,24.619-56.669,27.221-129.495c3.321,2.004,7.349,3.541,11.67,3.541 c1.178,0,2.378-0.122,3.59-0.371c0.415,2.389,0.797,4.851,1.132,7.386c3.384,25.623,2.859,54.667,2.739,59.601 c-6.067,13.766-15.085,30.784-30.576,52.471c-1.284,1.798-0.868,4.296,0.93,5.58c1.797,1.285,4.295,0.867,5.58-0.93 c20.186-28.26,29.659-48.796,35.819-64.58c1.234,1.122,2.73,2.151,4.548,2.879c1.746,0.7,3.579,1.049,5.491,1.049 c1.016,0,2.057-0.107,3.117-0.305c-0.312,2.286-0.719,4.72-1.251,7.324c-6.994,34.271-42.499,70.833-42.856,71.198 c-1.545,1.578-1.52,4.11,0.058,5.656c0.779,0.763,1.79,1.144,2.8,1.144c1.037,0,2.073-0.401,2.856-1.2 c0.382-0.389,9.471-9.701,19.591-23.594c2.393-3.284,4.618-6.522,6.695-9.716c0.503,1.053,1.138,2.094,1.964,3.075 c1.967,2.337,4.592,3.92,7.826,4.758c-11.858,18.253-36.632,38.166-48.541,46.48c-1.812,1.265-2.255,3.758-0.991,5.569 c0.777,1.114,2.021,1.711,3.284,1.711c0.79,0,1.588-0.233,2.285-0.72c0.565-0.395,12.059-8.817,25.102-20.192 c1.29-1.125,2.567-0.693,3.121-0.407c0.98,0.504,1.732,1.478,2.011,2.605c2.145,8.684-15.449,24.315-28.949,32.917 c-3.731-0.614-5.846-0.923-5.929-0.935c-1.037-0.149-2.092,0.113-2.937,0.733l-21.959,16.104c-0.977,0.716-1.576,1.836-1.631,3.045 c-0.054,1.21,0.442,2.379,1.35,3.18l12.443,10.979c0.731,0.646,1.672,1.001,2.646,1.001c1.101,0,2.194,0.01,3.289,0.017 c-12.273,15.629-14.417,37.652-4.544,55.552c9.603,17.412,17.28,34.83,17.356,35.004c0.659,1.499,2.125,2.392,3.664,2.392 c0.538,0,1.084-0.109,1.607-0.339c2.022-0.889,2.941-3.249,2.053-5.271c-0.078-0.177-7.892-17.91-17.676-35.648 c-9.374-16.997-5.879-38.413,8.203-51.508c102.738,2.819,178.352,35.714,179.137,36.061c0.523,0.231,1.073,0.342,1.615,0.342 c0.014,0,0.027,0,0.041,0c2.201-0.01,3.982-1.797,3.982-4C463.269,362.006,462.598,360.811,461.572,360.087z M35.397,300.304 c-9.254,2.944-14.074,3.716-16.493,3.842c1.996-2.422,6.413-6.314,12.784-10.646C33.468,294.945,35.758,297.418,35.397,300.304z M27.08,266.308c-11.616,0.179-16.452-0.867-18.352-1.552c2.075-1.973,7.645-5.017,15.696-8.109 C26.062,259.564,27.673,263.572,27.08,266.308z M22.98,223.183c-7.931-3.464-11.169-5.781-12.459-6.976 c2.687-1.011,9.035-1.644,17.698-1.345C27.274,218.44,24.71,221.469,22.98,223.183z M32.231,178.627 c-11.33-7.045-15.172-10.949-16.457-12.673c3.769-0.673,13.801,0.499,26.748,4.228C41.785,175.365,35.215,177.788,32.231,178.627z M58.646,138.569c-2.084,0.671-4.071,0.617-5.165,0.506c-12.352-10.708-15.99-15.938-17.047-18.042c0.003,0,0.006,0,0.01,0 c4.192,0,15.355,3.471,29.03,10.568C64.041,135.213,61.763,137.567,58.646,138.569z M91.233,96.917 c-7.371-9.601-9.482-14.264-10.069-16.235c3.374,0.595,10.951,4.302,20.301,10.776C98.345,96.451,93.609,96.998,91.233,96.917z M153.128,76.146c-3.196,0.853-6.601-0.389-8.291-1.17c-4.84-12.188-5.61-17.551-5.621-19.684 c3.301,1.628,10.254,8.066,18.085,18.054C156.103,74.788,154.727,75.718,153.128,76.146z M192.758,73.114 c-3.926-14.938-3.99-21.031-3.693-23.309c3.038,2.05,9.021,9.313,15.403,20.188C202.015,74.189,195.975,73.717,192.758,73.114z M233.7,71.732c-2.748-15.229-2.334-21.317-1.858-23.566c3.065,2.438,9.017,11.079,14.909,23.73 C242.737,73.965,236.771,72.65,233.7,71.732z M281.741,93.864c0.299-15.99,1.951-22.011,2.877-24.151 c2.708,3.223,7.26,14.128,10.611,29.325C289.308,100.317,283.916,95.953,281.741,93.864z M319.969,161.89 c-2.21-0.866-3.602-2.857-4.305-4.14c0.29-0.79,0.576-1.571,0.855-2.335c1.04-2.846,2.021-5.534,2.986-7.998 c1.285-3.283,2.547-4.453,3.012-4.683c1.353,0.724,4.244,6.536,3.796,18.804C323.864,162.452,321.733,162.579,319.969,161.89z M321.555,218.806c-1.934-2.269-1.848-5.682-1.711-7.107c5.357-4.208,8.765-4.861,9.408-4.602c0.029,0.035,0.123,0.201,0.203,0.538 c0.968,4.085,0.061,8.74-2.137,13.668C324.704,221.047,322.755,220.213,321.555,218.806z M275.09,303.878 c7.056,1.092,36.448,5.875,70.514,14.766c10.367,2.705,20.204,5.541,29.486,8.489c-20.348-5.22-39.19-8.583-54.83-10.74 c-24.343-3.357-44.075-4.343-55.967-4.596L275.09,303.878z M262.7,319.8c16.093,0.32,49.183,2.046,88.344,10.051 c-25.4-4.115-54.115-6.999-84.988-7.091L262.7,319.8z"/><path d="M232.334,285.427c-7.034,0-14.785,8.991-16.993,11.747c-1.171,1.462-1.171,3.54,0,5.002 c2.208,2.756,9.959,11.747,16.993,11.747c7.854,0,12.956-10.507,13.898-12.613c0.465-1.04,0.465-2.229,0-3.27 C245.289,295.934,240.187,285.427,232.334,285.427z M232.334,305.923c-1.752,0-5.451-2.95-8.563-6.248 c3.112-3.299,6.811-6.248,8.563-6.248c1.458,0,4.03,3.083,5.776,6.25C236.38,302.805,233.779,305.923,232.334,305.923z"/></g></g><g id="svg-3" style="" transform="matrix(-0.168524, 0, 0, 0.168524, 956.74114, 35.106403)"><g transform="matrix(1, 0, 0, 1, 259.091306, 56.101314)"><path d="M443.283,245.7c-0.322-0.938-8.171-23.084-32.789-34.338c-18.408-8.419-48.186-26.346-59.239-33.105 c2.28-2.557,5.179-6.348,7.656-11.301c4.455-8.911,8.364-23.427,1.686-41.978c-6.809-18.912-17.773-34.845-30.875-44.864 c-15.93-12.182-34.424-15.263-53.487-8.909c-14.047,4.683-25.133,13.75-32.994,26.975c-1.238-0.241-2.78-0.451-4.565-0.531 c1.095-9.508,2.204-31.398-6.428-54.547c-0.772-2.069-3.077-3.123-5.146-2.351c-2.07,0.771-3.122,3.075-2.351,5.146 c7.709,20.674,6.984,40.707,6.053,49.903c-5.41-18.169-19.59-53.592-53.18-82.818c-1.666-1.45-4.193-1.273-5.643,0.392 c-1.45,1.667-1.275,4.193,0.392,5.644c31.975,27.823,45.516,61.506,50.707,78.875c-8.647-15.792-36.9-61.018-93.444-96.774 c-1.868-1.182-4.337-0.624-5.519,1.243c-1.181,1.867-0.624,4.338,1.243,5.519c56.837,35.942,84.772,82.872,91.665,95.703 c-0.263,0.159-0.526,0.318-0.79,0.485C204.661,90.134,153.271,31.461,88.959,6.276c-2.057-0.805-4.377,0.209-5.183,2.266 c-0.806,2.058,0.209,4.378,2.266,5.184c61.27,23.993,112.063,81.26,123.759,95.149c-0.119,0.103-0.238,0.198-0.357,0.302 c-13.412-11.398-73.782-60.602-143.143-84.458c-2.088-0.72-4.365,0.392-5.083,2.481c-0.718,2.089,0.393,4.365,2.482,5.083 c67.301,23.149,126.106,70.75,140.06,82.561c-0.157,0.176-0.315,0.353-0.472,0.532c-7.494-4.593-28.431-17.125-53.76-29.721 C106.766,64.386,72.496,53.065,47.672,52.004c-2.209-0.106-4.073,1.618-4.167,3.825c-0.094,2.207,1.619,4.073,3.826,4.167 c23.35,0.998,57.434,12.335,98.567,32.786c24.225,12.044,44.383,24.027,52.381,28.906c-0.122,0.169-0.245,0.337-0.365,0.507 C182.957,115.268,105.981,81.451,28.024,81c-0.008,0-0.016,0-0.023,0c-2.198,0-3.987,1.775-4,3.977 c-0.013,2.209,1.768,4.011,3.977,4.023c74.849,0.432,148.975,32.383,165.569,39.99c-0.087,0.151-0.171,0.305-0.258,0.457 C176,124.87,89.01,103.125,16.703,108.511c-2.203,0.164-3.856,2.084-3.691,4.286c0.164,2.204,2.093,3.837,4.286,3.692 c69.017-5.149,152.001,14.971,172.27,20.251c-0.135,0.296-0.272,0.591-0.404,0.889c-18.338-2.266-116.585-13.482-185.758-3.084 c-2.185,0.328-3.689,2.365-3.361,4.55s2.368,3.69,4.55,3.361c65.919-9.91,159.069,0.16,181.504,2.858 c-0.354,1.007-0.692,2.02-1.015,3.037c-17.125-0.726-101.628-3.246-166.598,13.781c-2.137,0.56-3.415,2.746-2.855,4.883 c0.471,1.798,2.092,2.987,3.867,2.987c0.335,0,0.677-0.043,1.017-0.132c61.864-16.212,142.068-14.38,162.383-13.601 c-0.196,0.824-0.393,1.647-0.571,2.474c-16.584,0.852-93.688,6.402-152.702,37.725c-1.951,1.036-2.693,3.457-1.658,5.408 c0.719,1.354,2.104,2.126,3.537,2.126c0.632,0,1.274-0.15,1.872-0.468c54.262-28.801,126.556-35.333,146.831-36.636 c-15.099,3.81-76.973,21.115-124.712,59.485c-1.722,1.385-1.996,3.902-0.612,5.624c0.79,0.983,1.95,1.494,3.12,1.494 c0.879,0,1.765-0.288,2.503-0.882c43.878-35.267,101.797-52.654,119.463-57.372c-0.019,0.25-0.043,0.5-0.06,0.749 c-8.51,4.673-41.663,25.272-75.289,78.364c-1.182,1.867-0.627,4.338,1.239,5.52c0.664,0.421,1.404,0.622,2.136,0.622 c1.325-0.001,2.622-0.658,3.383-1.86c4.924-7.774,9.846-14.827,14.683-21.225c-0.616,19.434,1.787,57.51,23.89,99.933 c24.779,47.559,17.68,100.429,17.587,101.085c-0.313,2.188,1.207,4.213,3.394,4.526c0.192,0.027,0.383,0.041,0.571,0.041 c1.958,0,3.669-1.439,3.955-3.435c0.324-2.262,7.62-55.951-18.412-105.915c-27.554-52.885-23.072-99.806-22.11-107.386 c19.297-23.002,36.212-35.375,44.691-40.759c0.111,13.618,2.454,26.428,6.485,36.631c6.738,17.055,16.858,27.489,23.976,33.159 c-2.619,1.118-5.016,2.676-7.173,4.689c-5.786,5.401-9.56,13.769-11.217,24.87c-1.671,11.194-0.547,21.214-0.163,24.018 c0.726,5.293,3.555,11.595,6.55,18.267c2.181,4.859,4.437,9.883,5.972,14.704c0.688,2.161,1.432,4.312,2.151,6.392 c2.159,6.243,4.198,12.141,4.863,18.351c0.708,6.62,3.236,11.19,7.512,13.584c2.29,1.281,4.718,1.718,6.965,1.718 c1.895,0,3.656-0.311,5.097-0.687c4.277,7.951,15.853,31.782,15.853,56.799c0,2.209,1.791,4,4,4s4-1.791,4-4 c0-26.462-11.637-50.963-16.503-60.052c11.598-7.552,19.261-26.62,22.805-56.81c0.785-6.641,1.323-23.398,1.844-39.604l0.063-1.96 c0.493-15.256,11.833-27.725,26.964-29.646c17.881-2.27,42.221-4.257,65.108-5.315c11.161-0.517,21.981,0.375,32.172,2.646 c25.511,5.688,51.743,3.813,52.845,3.729c1.236-0.093,2.36-0.754,3.042-1.789S443.686,246.872,443.283,245.7z M407.168,218.638 c11.844,5.415,19.299,13.864,23.61,20.363c-23.693-9.619-83.864-32.186-136.177-36.339c-1.743-7.083-4.599-13.316-6.78-17.425 c1.741-0.299,3.74-0.623,5.762-0.911c2.614-0.374,5.413-0.093,8.095,0.808c16.917,5.688,36.529,0.258,42.659-1.734 C352.234,188.276,386.236,209.065,407.168,218.638z M257.941,140.558l9.442,14.352c-2.658,3.093-4.275,7.103-4.275,11.491 c0,8.72,6.358,15.967,14.677,17.393c0.103,0.262,0.229,0.516,0.388,0.755c0.089,0.134,8.898,13.493,9.903,27.636 c0.803,11.303-7.479,21.579-18.857,23.396c-21.241,3.403-42.321-3.839-56.383-19.365c-7.796-8.606-12.06-18.289-12.672-28.778 c-0.617-10.567,2.335-19.758,8.772-27.316c0.025-0.028,0.05-0.058,0.075-0.087C222.018,144.874,245.036,140.145,257.941,140.558z M211.52,146.891l0.209-1.433c0.65-4.457,3.667-8.21,7.877-9.797l2.803-1.061c3.741-1.419,7.048-3.824,9.562-6.957 c2.513-3.132,4.138-6.888,4.701-10.861c0.287-2.023,1.961-2.526,2.468-2.632c0.144-0.03,0.387-0.068,0.685-0.068 c0.756,0,1.87,0.246,2.642,1.498l10.525,17.067C240.965,133.328,224.393,137.345,211.52,146.891z M280.774,176.067 c-5.33,0-9.667-4.336-9.667-9.666s4.336-9.667,9.667-9.667s9.667,4.337,9.667,9.667S286.104,176.067,280.774,176.067z M254.651,281.278c-0.516,16.038-1.048,32.622-1.793,38.926c-0.544,4.639-1.991,16.959-5.635,28.603 c-4.056,12.958-9.66,21.192-16.208,23.811c-0.066,0.026-0.15,0.063-0.214,0.093c-1.401,0.65-5.627,1.998-8.328,0.469 c-1.871-1.06-3.03-3.563-3.445-7.443c-0.761-7.113-3.046-13.723-5.256-20.113c-0.703-2.034-1.431-4.138-2.089-6.205 c-1.673-5.254-4.024-10.489-6.296-15.553c-2.753-6.132-5.353-11.924-5.922-16.076c-1.414-10.313-1.37-32.354,8.913-41.953 c3.322-3.101,7.451-4.638,12.518-4.638c2.005,0,4.157,0.24,6.464,0.721c9.956,2.065,19.134,8.507,27.3,19.154L254.651,281.278z M354.413,236.621c-23.088,1.068-47.666,3.076-65.747,5.372c-15.973,2.028-28.591,13.39-32.619,28.33 c-8.146-8.746-17.221-14.197-27.063-16.239c-2.748-0.571-5.365-0.86-7.853-0.878c-3.572-2.028-18.768-11.712-27.577-34.008 c-9.798-24.8-8.872-66.216,12.142-94.124c19.062-25.317,37.291-18.799,38.027-18.521c1.888,0.752,4.039-0.031,5.001-1.821 c6.928-12.875,17.035-21.602,30.042-25.937c37.369-12.459,63.382,18.554,74.305,48.893c7.126,19.795,0.629,34.074-4.916,41.744 c-2.82,3.901-6.918,6.691-11.592,7.844c-7.855,1.938-21.086,4.058-32.337,0.276c-2.86-0.961-5.836-1.424-8.748-1.378 c1.868-2.801,2.962-6.16,2.962-9.772c0-9.741-7.925-17.667-17.667-17.667c-2.442,0-4.769,0.499-6.887,1.399l-24.612-38.751 c-2.496-4.047-7.118-6.036-11.771-5.062c-4.65,0.971-8.085,4.637-8.753,9.34c-0.361,2.554-1.405,4.966-3.019,6.978 c-1.622,2.021-3.751,3.57-6.156,4.482l-2.796,1.058c-6.927,2.611-11.896,8.79-12.967,16.125l-1.677,11.485 c-7.327,9.013-10.677,19.813-9.958,32.116c0.721,12.356,5.677,23.688,14.729,33.683c15.886,17.538,39.65,25.721,63.576,21.895 c15.434-2.465,26.667-16.46,25.573-31.862c-0.019-0.271-0.051-0.539-0.075-0.809c45.576,4.014,96.971,21.974,123.639,32.361 c-9.039-0.34-20.137-1.315-30.924-3.719C377.812,237.025,366.278,236.072,354.413,236.621z"/><circle cx="280.773" cy="166.4" r="4.814"/><path d="M365.162,213c0.156,0,0.314-0.009,0.473-0.027l5.667-0.667c2.194-0.259,3.763-2.246,3.505-4.44s-2.247-3.756-4.44-3.505 l-5.667,0.667c-2.194,0.259-3.763,2.246-3.505,4.44C361.434,211.503,363.162,213,365.162,213z"/></g></g><g id="svg-4" style="" transform="matrix(-0.154461, 0, 0, 0.154461, 1090.941639, 108.471778)"><g transform="matrix(1, 0, 0, 1, 617.982171, -24.418327)"><path d="M395.092,252.903c-0.688-2.333-0.658-4.827-0.627-7.468c0.027-2.298,0.056-4.674-0.342-7.246 c-0.707-4.568-2.276-7.936-4.275-10.343c-0.442-10.463-2.87-34.049-15.141-56.923c-8.079-15.06-18.776-26.894-31.99-35.466 c-47.049-34.181-65.974-71.087-84.14-112.264c-0.701-1.589-2.353-2.548-4.075-2.364c-1.728,0.18-3.141,1.455-3.499,3.154 c-3.566,16.933-2.771,31.405-0.804,42.227c-7.893-12.688-17.032-33.196-19.673-62.569c-0.155-1.721-1.397-3.148-3.081-3.538 c-1.683-0.392-3.429,0.344-4.323,1.822c-9.488,15.643-11.842,38.96-6.458,63.972c4.554,21.157,13.879,40.824,26.004,55.168 C161.112,134.469,93.471,201.435,28.129,331.35c-0.993,1.974-0.198,4.378,1.776,5.371c0.577,0.29,1.19,0.428,1.794,0.428 c1.464,0,2.874-0.807,3.577-2.204c76.194-151.493,154.917-215.576,255.272-207.782c75.898,5.894,88.804,71.181,90.962,95.823 c-0.983-0.162-1.954-0.223-2.883-0.17c-7.53,0.436-13.436,6.727-13.734,14.633c-0.121,3.199-3.077,8.42-6.201,10.955 c-10.105,8.199-18.904,17.209-26.152,26.782c-0.003,0.003-0.005,0.006-0.007,0.009c-12.055,15.908-19.918,33.392-23.418,52.002 c-10.008,3.557-44.606,21.163-49.677,95.533c-0.149,2.204,1.515,4.112,3.719,4.263c0.093,0.006,0.185,0.009,0.276,0.009 c2.085,0,3.843-1.617,3.987-3.728c2.821-41.389,15.28-63.431,25.235-74.634c9.158-10.307,17.919-13.543,20.234-14.256 c4.3,0.531,23.116,2.261,41.434-5.173l-3.874,11.136c-0.512,1.471-0.123,3.105,0.996,4.188c0.76,0.735,1.763,1.126,2.783,1.126 c0.482,0,0.969-0.087,1.435-0.267c0.615-0.236,15.202-5.957,27.406-20.23C394.376,311.94,405.638,288.67,395.092,252.903z M291.168,119.187c-13.333-1.037-26.288-0.857-38.91,0.555c-12.8-13.367-23.128-33.943-27.774-55.526 c-3.6-16.728-3.533-32.483,0.005-45.186c7.892,45.054,30.513,66.878,33.022,69.171c0.015,0.014,0.029,0.028,0.042,0.04 c1.595,1.516,4.103,1.449,5.627-0.136c1.264-1.313,1.446-3.273,0.576-4.78c-0.461-0.903-9.006-18.247-6.868-44.403 c13.547,29.299,29.681,57.79,58.369,84.371C307.748,121.224,299.717,119.851,291.168,119.187z M317.345,326.741 c3.021-14.622,8.966-28.498,17.728-41.377l4.372,8.936c4.033,8.257,13.4,12.499,22.314,10.076c0.452-0.129,0.71,0.21,0.774,0.302 c0.194,0.273,0.144,0.517,0.089,0.674l-4.587,13.19C342.985,327.143,325.233,327.229,317.345,326.741z M377.199,319.718 c-5.293,6.255-11.188,10.724-15.857,13.669l3.767-10.829c0.001-0.001,0.001-0.002,0.002-0.004l5.07-14.578 c0.941-2.713,0.53-5.606-1.128-7.937c-1.645-2.312-4.302-3.692-7.106-3.692c-0.794,0-1.591,0.111-2.326,0.32 c-5.172,1.409-10.636-1.065-12.988-5.881l-6.218-12.71c6.566-8.342,14.4-16.225,23.319-23.46c4.318-3.504,8.924-10.77,9.154-16.865 c0.162-4.29,3.317-6.782,6.203-6.949c3.576-0.193,6.26,3.011,7.126,8.611c0.297,1.916,0.273,3.864,0.249,5.926 c-0.038,3.117-0.076,6.339,0.952,9.827C395.032,280.988,391.594,302.706,377.199,319.718z"/><path d="M315.372,232.652c0.001,0,0.001,0,0.002,0c4.713,0,9.344-1.316,13.392-3.805l11.291-6.944 c1.662-1.022,2.345-3.096,1.613-4.906l-4.967-12.291c-3.937-9.739-13.275-16.031-23.792-16.031c-4.714,0-9.346,1.316-13.394,3.805 l-11.291,6.944c-1.662,1.022-2.345,3.096-1.613,4.906l4.968,12.291C295.516,226.358,304.855,232.651,315.372,232.652z M329.285,207.704l3.7,9.155l-8.411,5.173c-2.786,1.714-5.968,2.62-9.2,2.62h-0.001c-3.24,0-6.314-0.873-8.968-2.432 c-3.84-14.214,4.098-23.007,6.843-25.532C320.348,196.82,326.62,201.109,329.285,207.704z M300.288,201.399 c-1.185,2.585-2.15,5.57-2.619,8.937l-2.372-5.868L300.288,201.399z"/><path d="M379.663,233.92c-2.185-0.1-4.088,1.578-4.204,3.784l-0.631,11.98c-0.116,2.206,1.578,4.089,3.784,4.205 c0.071,0.003,0.143,0.005,0.214,0.005c2.112,0,3.878-1.655,3.99-3.79l0.631-11.98C383.563,235.919,381.869,234.036,379.663,233.92z "/><path d="M294.189,237.418c0-19.529-16.25-35.417-36.225-35.417s-36.225,15.888-36.225,35.417c0,19.529,16.25,35.417,36.225,35.417 S294.189,256.947,294.189,237.418z M257.965,264.835c-15.563,0-28.225-12.299-28.225-27.417c0-15.118,12.661-27.417,28.225-27.417 s28.225,12.299,28.225,27.417C286.189,252.536,273.528,264.835,257.965,264.835z"/></g></g><g id="svg-5" style="" transform="matrix(0.151402, 0, 0, 0.151402, 44.959453, 353.527859)"><g transform="matrix(1, 0, 0, 1, 621.807794, 83.465606)"><path d="M288.265,206.045c16.953,0,28.576-10.912,29.167-11.478c1.592-1.525,1.645-4.046,0.124-5.642 c-1.52-1.597-4.05-1.656-5.65-0.142c-0.591,0.559-14.653,13.597-33.382,7.746c-2.108-0.657-4.352,0.516-5.012,2.625 c-0.658,2.108,0.517,4.352,2.625,5.011C280.405,205.497,284.469,206.045,288.265,206.045z"/><path d="M171.327,106.884c-1.613,0.934-39.604,23.313-48.559,61.891c-0.499,2.152,0.84,4.301,2.992,4.801 c0.304,0.071,0.608,0.104,0.908,0.104c1.818,0,3.464-1.249,3.893-3.097c8.149-35.109,44.327-56.515,44.775-56.776 c1.91-1.107,2.563-3.554,1.456-5.465C175.685,106.43,173.239,105.776,171.327,106.884z"/><path d="M153.615,170.021c-2.021-0.893-4.381,0.021-5.275,2.04c-0.639,1.444-15.658,35.778-17.006,71.467 c-0.083,2.208,1.639,4.064,3.846,4.148c0.052,0.002,0.103,0.003,0.154,0.003c2.139,0,3.913-1.693,3.994-3.849 c1.288-34.119,16.179-68.194,16.328-68.534C156.548,173.275,155.634,170.914,153.615,170.021z"/><path d="M401.968,221.861c-2.525-20.702-19.915-33.426-30.464-39.33c0.222-12.02-1.131-61.993-36.472-99.243 C308.856,55.695,270.42,41.925,220.64,42.351c-7.597,0.058-13.407,0.317-18.675,0.83c-8.431-3.057-17.499-5.804-27.262-8.154 c-1.518-0.364-3.114,0.188-4.081,1.418c-0.966,1.229-1.127,2.91-0.412,4.301c0.175,0.339,0.319,0.68,0.44,1.028 c-11.622-8.617-24.517-13.871-37.637-15.289c-5.139-0.559-12.24-0.356-19.104-0.159c-4.876,0.14-9.479,0.271-13.185,0.138 c-1.707-0.056-3.28,0.98-3.887,2.587c-0.605,1.607-0.117,3.422,1.214,4.509c14.526,11.86,28.033,21.887,40.525,30.372 c-25.896,15.269-49.092,38.691-69.021,69.736c-17.002,26.486-31.688,58.56-43.65,95.331C5.583,291.462,0.073,346.745,0.019,347.295 c-0.213,2.199,1.397,4.154,3.596,4.366c0.132,0.013,0.262,0.019,0.391,0.019c2.035,0,3.776-1.547,3.977-3.615 c0.053-0.543,5.502-55.088,25.579-116.742c11.753-36.091,26.144-67.517,42.771-93.405c20.108-31.305,43.556-54.498,69.706-69.024 c45.981,29.952,77.219,38.306,93.574,40.455c-5.429,3.24-11.883,7.994-17.779,14.696c-22.298,25.345-18.695,57.883-11.747,80.715 c0.525,1.726,2.111,2.836,3.826,2.836c0.385,0,0.777-0.056,1.166-0.174c2.113-0.643,3.305-2.878,2.662-4.991 c-9.2-30.229-5.878-54.737,9.873-72.843c9.739-11.195,21.513-16.45,25.472-17.991c1.735,0.728,3.366,1.673,4.842,2.849 l14.162,11.258c1.73,1.375,4.247,1.086,5.62-0.642c1.375-1.729,1.088-4.246-0.642-5.621l-14.159-11.256 c-4.683-3.73-10.409-5.882-16.564-6.225c-45.741-2.492-106.855-46.049-134.433-67.577c0.734-0.02,1.477-0.042,2.225-0.063 c6.596-0.189,13.417-0.385,18.014,0.116c13.496,1.458,26.803,7.528,38.483,17.555c1.177,1.009,2.288,2.036,3.305,3.052 c1.335,1.335,3.422,1.555,5.005,0.527c1.584-1.027,2.233-3.022,1.559-4.786c-0.756-1.974-0.947-3.776-1.149-5.684 c-0.023-0.216-0.046-0.435-0.07-0.656c52.629,14.116,82.694,40.412,98.794,60.376c9.69,12.016,17.868,23.737,23.426,31.792 c-5.253-3.751-13.737-6.726-26.925-4.196c-27.21,5.216-23.911,32.188-23.875,32.46c0.004,0.032,0.026,0.056,0.034,0.086 c0.107,0.68,0.368,1.332,0.808,1.881c14.981,18.725,28.111,24.1,38.249,24.1c3.675,0,6.958-0.707,9.791-1.74 c7.2-2.614,11.3-7.407,11.471-7.61c1.418-1.681,1.204-4.182-0.468-5.61c-1.399-1.195-3.389-1.251-4.845-0.266 c2.729-11.426,1.242-20.099-0.112-24.735c0.404-0.03,0.81-0.104,1.206-0.265c1.551-0.63,2.488-2.123,2.491-3.7 c0-0.001,0-0.001,0-0.002c0-0.202-0.333-1.815-0.545-2.555c-0.87-3.044-3.12-9.955-7.716-18.985 c31.618,4.412,52.53,33.254,56.625,55.297c-27.618,27.776-21.23,58.421-20.932,59.771c0.34,1.533,1.545,2.725,3.081,3.048 c0.098,0.021,7.907,1.671,16.949,3.962c1.286,15.087,7.008,87.481,1.845,124.351c-0.307,2.188,1.219,4.209,3.406,4.516 c0.188,0.026,0.375,0.039,0.56,0.039c1.963,0,3.677-1.446,3.956-3.446c5.071-36.2,0.125-103.18-1.547-123.266 c8.153,2.438,8.298,5.663,7.66,19.073c-0.07,1.473,0.676,2.866,1.942,3.623c0.632,0.378,1.343,0.567,2.053,0.567 c0.712,0,1.425-0.19,2.058-0.57C397.677,261.069,404.847,245.469,401.968,221.861z M295.253,182.197 c-10.544,2.907-22.421-2.908-34.619-16.938c6.448-4.011,15.062-8.627,23.659-11.049c-0.868,2.073-1.363,4.468-1.363,7.045 c0,8.088,4.834,14.424,11.006,14.424c1.336,0,2.604-0.313,3.78-0.86C297.112,177.146,296.316,179.604,295.253,182.197z M290.93,161.255c0-3.985,1.946-6.424,3.006-6.424s3.006,2.439,3.006,6.424s-1.946,6.424-3.006,6.424S290.93,165.24,290.93,161.255 z M258.845,156.978c1.026-6.101,4.778-14.315,17.238-16.704c12.538-2.402,19.306,1.249,22.666,4.431 C285.667,143.367,270.806,149.839,258.845,156.978z M296.377,117.002c-12.231-20.422-35.203-47.388-76.915-66.639 c0.411-0.004,0.82-0.009,1.242-0.012c0.729-0.006,1.451-0.01,2.175-0.01c46.327,0,82.085,12.914,106.295,38.396 c25.51,26.85,32.156,61.719,33.803,81.16C354.458,145.748,330.441,118.814,296.377,117.002z M380.894,261.257 c-0.1-9.304-2.36-16.062-14.493-19.432c-8.686-2.413-17.8-4.497-22.208-5.472c-0.825-7.235-1.274-28.904,18.556-49.311 c7.047,3.297,28.751,15.058,31.278,35.789C396.181,240.5,392.339,252.13,380.894,261.257z"/><path d="M255.398,238.146c-14.727-11.044-22.475-34.659-22.591-35.019c-0.675-2.104-2.927-3.266-5.028-2.59 c-2.104,0.673-3.265,2.925-2.591,5.029c0.343,1.07,8.582,26.36,25.409,38.981c0.72,0.54,1.563,0.8,2.397,0.8 c1.216,0,2.417-0.552,3.203-1.6C257.523,241.979,257.164,239.471,255.398,238.146z"/><path d="M297.247,249.354c-14.183-0.886-30.11-17.51-30.343-17.755c-1.516-1.604-4.048-1.678-5.653-0.161 c-1.606,1.517-1.679,4.049-0.162,5.655c0.738,0.782,18.283,19.16,35.658,20.246c0.086,0.005,0.17,0.008,0.254,0.008 c2.095,0,3.855-1.631,3.988-3.75C301.127,251.39,299.452,249.491,297.247,249.354z"/><path d="M334.622,246.348c-14.858-0.464-27.683-6.507-27.892-6.607c-1.992-0.957-4.38-0.12-5.338,1.87 c-0.958,1.991-0.121,4.381,1.869,5.339c0.582,0.28,14.455,6.874,31.11,7.394c0.043,0.001,0.085,0.002,0.127,0.002 c2.151,0,3.929-1.709,3.996-3.875C338.565,248.263,336.83,246.417,334.622,246.348z"/></g></g><g id="svg-6" style="" transform="matrix(-0.159743, 0, 0, 0.159743, 1019.934437, 166.701597)"><g transform="matrix(1, 0, 0, 1, 669.627861, 24.761621)"><path d="M340.62,129.721l-17.349-12.312l-21.815-22.517c-25.97-26.803-62.178-40.212-99.339-36.785 c-37.163,3.425-70.313,23.227-90.947,54.328l-11.8,17.79c-27.634,41.654-39.623,91.925-33.76,141.55l0.707,5.992 c-9.619,3.588-39.499,16.03-65.081,40.475c-1.597,1.526-1.654,4.059-0.128,5.655c0.785,0.823,1.838,1.237,2.893,1.237 c0.993,0,1.987-0.368,2.763-1.108c28.949-27.663,64.787-39.64,65.146-39.758c1.808-0.593,2.949-2.379,2.727-4.269l-1.08-9.161 c-4.666-39.491,2.429-79.4,20.061-114.698c5.291,29.1,16.609,53.695,33.757,73.219c15.578,17.737,35.919,31.304,60.456,40.323 c29.284,10.765,57.154,12.432,71.612,12.432c4.316,0,7.429-0.148,9.036-0.248c2.22,1.088,5.393,2.159,9.315,3.208 c4.779,5.585,31.96,38.001,51.118,74.584c0.715,1.364,2.106,2.145,3.547,2.145c0.626,0,1.261-0.147,1.853-0.458 c1.957-1.025,2.713-3.442,1.688-5.399c-15.025-28.688-34.848-54.823-45.462-68.008c39.947,7.762,113.502,13.707,123.813,14.517 c0.105,0.008,0.211,0.012,0.314,0.012c1.555,0,2.981-0.905,3.637-2.336c0.188-0.411,0.295-0.841,0.338-1.274 c0.002-0.012,0.011-0.022,0.012-0.035C424.533,232.85,394.634,168.054,340.62,129.721z M411.203,289.772 c-5.816-5.26-15.447-13.606-27.904-23.119c1.169-2.088,2.279-4.301,3.301-6.659c7.681-17.716,8.75-38.737,3.233-62.738 C404.941,225.288,412.564,257.237,411.203,289.772z M373.503,172.195c13.443,33.779,15.409,62.192,5.828,84.454 c-0.779,1.809-1.621,3.518-2.503,5.149c-16.39-12.069-36.783-25.409-59.376-36.495c0.05-3.008-0.609-6.078-2.073-8.948 c-0.836-1.64-1.569-2.99-2.134-4c8.114-15.965,10.966-29.503,8.685-41.317c-4.443-23.002-2.364-37.67,0.197-44.629l13.862,9.837 C350.359,146.444,362.939,158.603,373.503,172.195z M290.46,238.083c-0.001,0-0.002,0-0.002,0c-6.739,0-13.96-2.661-22.487-8.327 c7.988-8.531,17.471-15.029,24.364-19.138c1.364-0.813,2.923-1.243,4.507-1.243c2.764,0,5.328,1.249,7.036,3.426l1.509,1.925 c0.354,0.6,1.473,2.531,2.865,5.262c2.61,5.117,0.873,11.313-3.954,14.107C299.661,236.779,295.136,238.083,290.46,238.083z M106.036,134.647l11.8-17.79c19.289-29.072,50.276-47.582,85.016-50.784c34.738-3.197,68.583,9.332,92.858,34.385l20.028,20.672 c-0.98,2.115-2.182,5.376-3.083,9.981c-0.295,1.509-0.539,3.07-0.737,4.676c-13.429-13.062-46.734-40.54-91.062-42.651 c-28.312-1.335-46.063,12.478-63.243,25.848c-16.299,12.685-31.764,24.707-55.426,21.715 C103.436,138.664,104.712,136.643,106.036,134.647z M190.591,262.173c-23.271-8.554-42.519-21.371-57.206-38.094 c-17.36-19.766-28.425-45.154-32.928-75.525c3.135,0.434,6.141,0.637,9.034,0.637c22.332-0.001,37.899-12.113,53.035-23.892 c16.769-13.05,32.622-25.379,57.949-24.17c48.809,2.324,84.598,38.762,90.831,45.522c0.025,7.803,0.945,16.459,2.769,25.904 c1.779,9.216-0.292,19.998-6.316,32.827c-3.026-2.566-6.852-4.005-10.917-4.005c-3.026,0-6.001,0.82-8.603,2.371 c-8.284,4.938-20.093,13.137-29.308,24.153c-0.71,0.849-1.036,1.954-0.902,3.052c0.135,1.099,0.718,2.092,1.612,2.745 c8.462,6.179,15.97,9.934,23.091,11.512c-7.775,11.079-14.403,20.854-16.663,28.759 C256.391,274.347,224.105,274.493,190.591,262.173z M291.151,247.142l0.78-1.109c5.587-0.246,10.961-1.881,16.373-5.013 c3.232-1.87,5.68-4.595,7.23-7.741c21.718,10.811,41.297,23.69,57.048,35.321c-8.934,12.456-19.887,18.173-22.958,19.601 c-32.062-3.612-64.288-8.171-75.698-12.643C276.174,268.436,283.475,258.055,291.151,247.142z M362.829,289.638 c4.968-3.575,10.875-8.83,16.171-16.213c10.39,7.96,18.732,15.056,24.407,20.097C392.042,292.544,377.776,291.213,362.829,289.638z "/><path d="M241.807,115.226c-1.551,0.341-2.753,1.566-3.063,3.122c-3.757,18.781-15.054,31.867-31.904,37.05 c-16.468-3.803-37.039-5.755-59.577-1.53c-2.171,0.407-3.602,2.498-3.194,4.669c0.407,2.172,2.502,3.598,4.669,3.194 c19.088-3.58,36.857-2.36,51.654,0.587c1.082,0.215,9.159,2.114,10.505,2.483c18.852,5.164,30.803,12.281,31.023,12.414 c0.645,0.393,1.364,0.584,2.08,0.584c1.054,0,2.097-0.416,2.871-1.214c0.244-0.251,24.059-25.483-0.972-59.81 C244.962,115.494,243.358,114.885,241.807,115.226z M243.018,168.661c-4.206-2.244-12.483-6.266-23.748-9.853 c2.124-1.158,4.146-2.453,6.064-3.875c5.886,7.009,14.514,8.836,20.397,9.19C244.795,165.999,243.826,167.527,243.018,168.661z M248.559,156.182c-4.116,0.041-12.275-0.693-17.171-6.521c5.568-5.66,9.895-12.649,12.737-20.726 C249.903,139.803,250.151,149.104,248.559,156.182z"/></g></g><g id="svg-7" transform="matrix(-0.180277, 0, 0, 0.180277, 1150.067981, 205.680753)" style=""><g transform="matrix(1, 0, 0, 1, 796.649406, 114.302306)"><path d="M243.241,48.498c-6.065,0-11-4.935-11-11c0-2.209,1.791-4,4-4s4,1.791,4,4c0,1.654,1.346,3,3,3s3-1.346,3-3 c0-2.209,1.791-4,4-4s4,1.791,4,4C254.241,43.564,249.307,48.498,243.241,48.498z"/><path d="M335.803,69.764c-9.09-24.941-32.869-42.375-62.059-45.5c-0.008-0.001-0.015,0-0.023-0.001 c-7.417-13.938-21.418-23.115-37.204-24.177c-7.776-0.534-14.78,1.472-20.736,3.395c-29.517,9.559-53.924,50.448-61.126,75.071 l-1.67,5.701c-15.744,53.798-14.442,110.254,3.766,163.264c7.182,20.897,10.823,42.709,10.823,64.829 c-0.009,28.938-23.57,52.481-52.52,52.481h-31.81c-2.209,0-4,1.791-4,4s1.791,4,4,4h31.81c33.36,0,60.509-27.131,60.52-60.48 c0-23.007-3.788-45.694-11.257-67.429c-17.667-51.436-18.931-106.216-3.655-158.417l1.671-5.701 c2.777-9.496,9.608-24.971,20.454-39.928c7.91-10.909,20.483-24.93,35.456-29.779c5.241-1.693,11.373-3.467,17.732-3.025 c13.092,0.88,24.691,8.54,30.786,20.158c-10.379,10.68-11.568,34.722-7.052,44.494c-7.027,6.867-16.428,10.737-26.366,10.737 c-6.406,0-12.662-1.634-18.217-4.705c-2.381-1.426-10.103-6.568-13.506-15.074c-0.82-2.052-3.148-3.046-5.199-2.228 c-2.052,0.82-3.049,3.148-2.229,5.2c2.277,5.692,5.94,10.125,9.368,13.328c-0.267,0.361-0.511,0.742-0.714,1.15 c-1.662,3.368-3.022,6.851-4.042,10.348l-1.67,5.709c-13.065,44.612-11.985,91.428,3.125,135.384 c8.834,25.714,13.313,52.549,13.313,79.76c0,54.313-44.196,98.5-98.52,98.5h-6.81c-2.209,0-4,1.791-4,4s1.791,4,4,4h6.81 c58.735,0,106.52-47.776,106.52-106.5c0-28.098-4.625-55.808-13.747-82.36c-14.569-42.382-15.611-87.521-3.014-130.537l1.671-5.713 c0.86-2.951,2-5.892,3.385-8.739c0.35,0.21,0.713,0.392,1.067,0.592c0.695,0.416,1.316,0.733,1.357,0.753 c6.471,3.362,13.683,5.134,21.05,5.134c13.379,0,25.944-5.796,34.662-15.918c20.131,2.293,37.199,15.602,44.244,34.931 c2.373,6.512,3.453,13.316,3.211,20.222c-0.059,1.658,0.912,3.179,2.439,3.825c0.504,0.212,1.032,0.315,1.557,0.315 c1.068,0,2.117-0.428,2.888-1.231C338.761,116.488,343.918,92.026,335.803,69.764z M274.173,32.367 c21.649,2.675,39.79,14.067,49.632,30.683c-6.098,1.517-11.639,4.433-16.242,8.478c-10.732-10.849-25.288-18.145-41.794-20.625 C266.834,43.13,269.554,35.454,274.173,32.367z M300.089,80.408c-9.503-7.517-21.206-12.18-33.851-13.072 c-0.625-2.257-0.962-5.198-0.99-8.427c14.627,2.335,27.471,8.874,36.883,18.509C301.411,78.38,300.724,79.373,300.089,80.408z M306.152,85.908c0.41-0.747,0.848-1.473,1.312-2.177c2.047,2.802,3.857,5.786,5.372,8.952c0.689,1.442,1.31,2.91,1.865,4.399 C312.264,93.001,309.388,89.262,306.152,85.908z M326.063,114.56c-0.183-8.711-2.202-17.365-6.01-25.329 c-1.997-4.173-4.424-8.075-7.217-11.683c4.095-3.602,9.12-6.08,14.645-7.124c0.282,0.687,0.551,1.38,0.807,2.08 C333.416,86.574,332.448,101.652,326.063,114.56z"/></g></g><g id="_x32_" transform="matrix(0.151762, 0, 0, 0.147889, 750.370658, 272.299466)" style=""><g transform="matrix(1, 0, 0, 1, 632.196587, 91.88111)"><path class="st0" d="M412.854,54.264l-1.75-0.616L257.485,0l-59.965,93.647l-4.049,32.905l-91.828,94.864l33.354,28.537 l-12.635,26.793l7.292,9.537l-47.467,78.415l58.884,18.048L62.854,512H333.89L449.146,91.949L412.854,54.264z M311.299,482.375 H115.405l59.036-97.551l54.226,16.624l66.13-64.958l-15.3-15.573l-56.859,55.862l-95.436-29.26l38.256-63.169l-8.616-11.266 l14.584-30.949l-26.596-22.743l57.651-59.569l67.151,33.096l38.972-46.774l-83.302-35.699l0.791-6.485l43.722-68.284 l126.598,44.216l19.729,20.476L311.299,482.375z"/></g></g><g id="svg-8" transform="matrix(0.126586, 0, 0, 0.124902, 842.631766, 357.61578)" style=""><g transform="matrix(1, 0, 0, 1, 730.336723, 166.842161)"><path d="M446.492,232.643c-0.099-0.951-0.228-1.889-0.388-2.815c-1.357-9.232-3.417-17.613-6.111-28.557 c-0.514-2.089-1.053-4.276-1.615-6.587c-3.399-13.97-3.881-28.175-1.432-42.221c3.404-19.534,5.281-42.864-6.618-67.786 c-1.852-3.878-4.172-7.615-6.851-11.209c-0.521-1.381-1.423-2.637-2.694-3.585c-0.119-0.089-0.239-0.171-0.359-0.259 c-15.399-18.322-39.941-32.612-59.839-42.062C332.319,14.14,299.052,3.86,275.795,1.363c-0.188-0.023-0.378-0.043-0.568-0.061 l-0.033-0.002c-0.083-0.011-0.166-0.021-0.249-0.029l-1.498-0.156c-3.558-0.432-7.321-0.735-11.186-0.902 C259.769,0.071,257.663,0,256,0c-1.674,0-3.805,0.072-6.334,0.215c-3.452,0.151-6.896,0.423-10.241,0.81 c-23.142,2.249-56.926,12.338-86.099,25.714C127.16,38.735,93.335,58.523,80.788,84.663c-12.177,25.369-10.165,48.873-6.177,70.492 c2.431,13.176,1.961,27.017-1.395,41.14c-0.585,2.46-1.143,4.775-1.673,6.976c-2.229,9.251-3.998,16.598-5.262,24.291 c-0.453,1.973-0.783,4.002-0.951,6.093c-0.021,0.257-0.026,0.511-0.023,0.764C64.447,241.621,64,249.617,64,260 c0,50.897,11.079,91.357,32.929,120.258c19.67,26.018,47.54,43.068,85.2,52.126c1.778,0.428,3.557,0.217,5.109-0.472 c9.822,13.134,21.808,24.008,35.152,31.146c0.344,0.184,0.696,0.333,1.052,0.463c0.433,1.221,0.865,2.429,1.292,3.599 C234.574,494.059,243.656,512,256,512s21.426-17.941,31.265-44.881c0.427-1.17,0.859-2.379,1.293-3.6 c0.357-0.13,0.711-0.279,1.056-0.463c13.34-7.137,25.322-18.008,35.142-31.137c1.004,0.446,2.104,0.689,3.237,0.689 c0.619,0,1.249-0.072,1.877-0.224c37.661-9.058,65.53-26.108,85.2-52.126C436.921,351.357,448,310.897,448,260 C448,248.844,447.482,240.346,446.492,232.643z M241.041,16.942c0.051-0.005,0.102-0.01,0.153-0.017 c3.005-0.348,6.108-0.593,9.221-0.729c0.035-0.001,0.071-0.003,0.106-0.005C252.74,16.066,254.634,16,256,16 c1.354,0,3.223,0.065,5.407,0.19c0.038,0.002,0.076,0.004,0.114,0.006c3.493,0.148,6.877,0.422,10.059,0.811 c0.059,0.007,0.118,0.014,0.177,0.02l1.44,0.149c0.177,0.021,0.358,0.04,0.549,0.056c0.087,0.012,0.174,0.022,0.261,0.032 c21.617,2.305,52.906,12.021,79.713,24.752c8.459,4.017,16.213,8.198,23.205,12.482c-11.965,0.165-24.239,3.653-36.756,10.479 c-13.312,7.259-30.669,2.522-49.046-2.491c-11.687-3.188-23.772-6.486-35.125-6.486s-23.438,3.298-35.125,6.486 c-18.376,5.014-35.734,9.749-49.045,2.491c-12.643-6.894-25.036-10.379-37.115-10.478C168.93,33.945,215.201,19.436,241.041,16.942 z M176,352c0-24.35,2.876-35.587,6.719-42.084c4.664,21.847,10.04,45.214,15.522,67.034c5.832,23.209,11.614,44.137,17.103,61.956 C191.87,418.905,176,384.998,176,352z M256,495.193c-2.495-2.634-8.662-11.498-18.71-40.528 c-7.704-22.257-16.386-52.665-25.107-87.937C196.311,302.534,184,237.292,184,224c0-10.614,9.495-35.505,27.642-62.541 C230.866,132.819,247.772,120,256,120s25.134,12.819,44.358,41.459C318.505,188.495,328,213.386,328,224 c0,13.292-12.311,78.534-28.183,142.729c-8.721,35.271-17.403,65.68-25.107,87.937C264.662,483.695,258.495,492.56,256,495.193z M296.656,438.904c5.489-17.819,11.271-38.746,17.103-61.955c5.449-21.688,10.793-44.905,15.438-66.639 C333.363,317.07,336,327.579,336,352C336,384.997,320.13,418.904,296.656,438.904z M402.308,370.608 c-15.616,20.656-37.394,34.948-66.322,43.549C346.073,395.129,352,373.376,352,352c0-39.603-6.864-49.469-18.167-61.011 l-0.507-0.519C339.714,258.879,344,233.045,344,224c0-18.121-15.247-48.946-30.357-71.458C301.474,134.413,277.804,104,256,104 s-45.474,30.413-57.643,48.542C183.247,175.054,168,205.879,168,224c0,9.042,4.283,34.86,10.668,66.435 C168.054,299.861,160,310.794,160,352c0,21.377,5.926,43.13,16.013,62.158c-28.927-8.601-50.705-22.894-66.321-43.549 C89.99,344.549,80,307.335,80,260c0-12.462,0.666-21.085,1.993-29.35c3.651-14.448,19.094-23.15,29.937-23.15 c4.779,0,8.295,2.909,13.517,7.699c6.599,6.054,16.57,15.2,31.613,7.093c3.889-2.098,5.342-6.949,3.245-10.839 c-2.097-3.889-6.949-5.34-10.838-3.245c-4.412,2.379-6.016,1.793-13.203-4.799c-5.784-5.306-12.982-11.909-24.333-11.909 c-7.568,0-15.505,2.238-22.65,6.28c3.409-15.542,3.773-30.847,1.065-45.527c-3.257-17.659-5.836-38.367,4.867-60.666 c1.429-2.977,3.268-5.913,5.457-8.801c0.037-0.027,0.077-0.049,0.114-0.076c20.215-15.073,40.357-16.244,63.388-3.687 c18.968,10.342,41.254,4.263,60.917-1.103c11.162-3.045,21.704-5.922,30.913-5.922s19.751,2.877,30.913,5.922 c11.854,3.234,24.658,6.729,37.117,6.729c8.208-0.001,16.268-1.518,23.801-5.626c22.318-12.17,41.923-11.447,61.512,2.328 c2.734,3.426,4.934,6.841,6.548,10.221c9.933,20.805,8.415,40.24,5.294,58.144c-2.789,16.002-2.282,32.174,1.493,48.08 c-7.152-4.052-15.1-6.296-22.677-6.296c-11.351,0-18.549,6.604-24.333,11.909c-7.188,6.596-8.793,7.178-13.204,4.799 c-3.887-2.095-8.741-0.645-10.838,3.245s-0.644,8.742,3.245,10.839c15.042,8.109,25.014-1.039,31.613-7.093 c5.222-4.79,8.738-7.699,13.517-7.699c11.201,0,27.312,9.285,30.26,24.598c1.158,7.855,1.74,16.265,1.74,27.902 C432,307.335,422.01,344.549,402.308,370.608z"/><path d="M120,104.125c-9.57,0-16,11.252-16,28s6.43,28,16,28s16-11.252,16-28S129.57,104.125,120,104.125z"/><path d="M392,160.125c9.57,0,16-11.252,16-28s-6.43-28-16-28s-16,11.252-16,28S382.43,160.125,392,160.125z"/></g></g></svg>